<svg width="1461" height="1099" viewBox="0 0 1461 1099" fill="none" xmlns="http://www.w3.org/2000/svg">
<g opacity="0.5">
<rect width="1550.03" height="104" transform="translate(0 1353.01) rotate(-89.6917)" fill="black" fill-opacity="0.01"/>
<rect width="1550.03" height="104" transform="translate(112.339 1353.01) rotate(-89.6917)" fill="black" fill-opacity="0.01"/>
<rect width="1550.03" height="104" transform="translate(224.678 1353.01) rotate(-89.6917)" fill="black" fill-opacity="0.01"/>
<rect width="1550.03" height="104" transform="translate(337.017 1353.01) rotate(-89.6917)" fill="black" fill-opacity="0.01"/>
<rect width="1550.03" height="104" transform="translate(449.355 1353.01) rotate(-89.6917)" fill="black" fill-opacity="0.01"/>
<rect width="1550.03" height="104" transform="translate(561.694 1353.01) rotate(-89.6917)" fill="black" fill-opacity="0.01"/>
<rect width="1550.03" height="104" transform="translate(674.033 1353.01) rotate(-89.6917)" fill="black" fill-opacity="0.01"/>
<rect width="1550.03" height="104" transform="translate(786.372 1353.01) rotate(-89.6917)" fill="black" fill-opacity="0.01"/>
<rect width="1550.03" height="104" transform="translate(898.711 1353.01) rotate(-89.6917)" fill="black" fill-opacity="0.01"/>
<rect width="1550.03" height="104" transform="translate(1011.05 1353.01) rotate(-89.6917)" fill="black" fill-opacity="0.01"/>
<rect width="1550.03" height="104" transform="translate(1123.39 1353.01) rotate(-89.6917)" fill="black" fill-opacity="0.01"/>
<rect width="1550.03" height="104" transform="translate(1235.73 1353.01) rotate(-89.6917)" fill="black" fill-opacity="0.01"/>
<rect width="1550.03" height="104" transform="translate(1348.07 1353.01) rotate(-89.6917)" fill="black" fill-opacity="0.01"/>
</g>
</svg>
