<svg width="20" height="15" viewBox="0 0 20 15" fill="none" xmlns="http://www.w3.org/2000/svg">
<mask id="mask0_871_2354" style="mask-type:luminance" maskUnits="userSpaceOnUse" x="0" y="0" width="20" height="15">
<rect x="0.5" y="0.5" width="18.6667" height="14" fill="white"/>
</mask>
<g mask="url(#mask0_871_2354)">
<path fill-rule="evenodd" clip-rule="evenodd" d="M0.5 0.5V14.5H19.1667V0.5H0.5Z" fill="#2E42A5"/>
<mask id="mask1_871_2354" style="mask-type:luminance" maskUnits="userSpaceOnUse" x="0" y="0" width="20" height="15">
<path fill-rule="evenodd" clip-rule="evenodd" d="M0.5 0.5V14.5H19.1667V0.5H0.5Z" fill="white"/>
</mask>
<g mask="url(#mask1_871_2354)">
<rect x="0.5" y="0.5" width="10.5" height="8.16667" fill="#2B409A"/>
<mask id="mask2_871_2354" style="mask-type:luminance" maskUnits="userSpaceOnUse" x="0" y="0" width="11" height="9">
<rect x="0.5" y="0.5" width="10.5" height="8.16667" fill="white"/>
</mask>
<g mask="url(#mask2_871_2354)">
<path d="M-0.669159 8.08331L1.6414 9.09668L11.0524 1.60185L12.2712 0.0959568L9.80039 -0.24274L5.96185 2.987L2.87223 5.16308L-0.669159 8.08331Z" fill="#F7FCFF"/>
<path d="M-0.352844 8.79376L0.824277 9.38184L11.8335 -0.0434984H10.1807L-0.352844 8.79376Z" fill="#F50100"/>
<path d="M12.1692 8.08331L9.8586 9.09668L0.447573 1.60185L-0.771193 0.0959568L1.69961 -0.24274L5.53815 2.987L8.62777 5.16308L12.1692 8.08331Z" fill="#F7FCFF"/>
<path d="M12.0903 8.59259L10.9132 9.18066L6.22535 5.14519L4.8355 4.69431L-0.888452 0.100837H0.764362L6.4851 4.58528L8.00466 5.12593L12.0903 8.59259Z" fill="#F50100"/>
<mask id="path-10-outside-1_871_2354" maskUnits="userSpaceOnUse" x="-0.5" y="-0.5" width="13" height="11" fill="black">
<rect fill="white" x="-0.5" y="-0.5" width="13" height="11"/>
<path fill-rule="evenodd" clip-rule="evenodd" d="M6.32429 0.5H5.15762V4H0.5V5.16667H5.15762V8.66667H6.32429V5.16667H11V4H6.32429V0.5Z"/>
</mask>
<path fill-rule="evenodd" clip-rule="evenodd" d="M6.32429 0.5H5.15762V4H0.5V5.16667H5.15762V8.66667H6.32429V5.16667H11V4H6.32429V0.5Z" fill="#F50100"/>
<path d="M5.15762 0.5V-0.375H4.28262V0.5H5.15762ZM6.32429 0.5H7.19929V-0.375H6.32429V0.5ZM5.15762 4V4.875H6.03262V4H5.15762ZM0.5 4V3.125H-0.375V4H0.5ZM0.5 5.16667H-0.375V6.04167H0.5V5.16667ZM5.15762 5.16667H6.03262V4.29167H5.15762V5.16667ZM5.15762 8.66667H4.28262V9.54167H5.15762V8.66667ZM6.32429 8.66667V9.54167H7.19929V8.66667H6.32429ZM6.32429 5.16667V4.29167H5.44929V5.16667H6.32429ZM11 5.16667V6.04167H11.875V5.16667H11ZM11 4H11.875V3.125H11V4ZM6.32429 4H5.44929V4.875H6.32429V4ZM5.15762 0.5V1.375H6.32429V0.5V-0.375H5.15762V0.5ZM5.15762 4H6.03262V0.5H5.15762H4.28262V4H5.15762ZM0.5 4V4.875H5.15762V4V3.125H0.5V4ZM0.5 5.16667H1.375V4H0.5H-0.375V5.16667H0.5ZM5.15762 5.16667V4.29167H0.5V5.16667V6.04167H5.15762V5.16667ZM5.15762 8.66667H6.03262V5.16667H5.15762H4.28262V8.66667H5.15762ZM6.32429 8.66667V7.79167H5.15762V8.66667V9.54167H6.32429V8.66667ZM6.32429 5.16667H5.44929V8.66667H6.32429H7.19929V5.16667H6.32429ZM11 5.16667V4.29167H6.32429V5.16667V6.04167H11V5.16667ZM11 4H10.125V5.16667H11H11.875V4H11ZM6.32429 4V4.875H11V4V3.125H6.32429V4ZM6.32429 0.5H5.44929V4H6.32429H7.19929V0.5H6.32429Z" fill="#F7FCFF" mask="url(#path-10-outside-1_871_2354)"/>
</g>
</g>
<g clip-path="url(#clip0_871_2354)">
<path d="M5.16666 12.041L4.40736 12.7427L4.48255 11.7116L3.46053 11.5554L4.31359 10.9713L3.79845 10.0749L4.78701 10.3777L5.16666 9.41602L5.5463 10.3777L6.53486 10.0749L6.01972 10.9713L6.87278 11.5554L5.85076 11.7116L5.92595 12.7427L5.16666 12.041Z" fill="#F7FCFF"/>
<path d="M12.75 7.66602L12.2438 8.13381L12.2939 7.44638L11.6126 7.34229L12.1813 6.95288L11.8379 6.35528L12.4969 6.55712L12.75 5.91602L13.0031 6.55712L13.6621 6.35528L13.3187 6.95288L13.8874 7.34229L13.2061 7.44638L13.2562 8.13381L12.75 7.66602Z" fill="#F7FCFF"/>
<path d="M13.9167 3L13.4105 3.4678L13.4606 2.78037L12.7793 2.67627L13.348 2.28686L13.0045 1.68926L13.6636 1.8911L13.9167 1.25L14.1698 1.8911L14.8288 1.68926L14.4854 2.28686L15.0541 2.67627L14.3727 2.78037L14.4229 3.4678L13.9167 3Z" fill="#F7FCFF"/>
<path d="M16.8333 5.33301L16.3271 5.80081L16.3773 5.11338L15.6959 5.00928L16.2646 4.61987L15.9212 4.02227L16.5802 4.22411L16.8333 3.58301L17.0864 4.22411L17.7455 4.02227L17.402 4.61987L17.9707 5.00928L17.2894 5.11338L17.3395 5.80081L16.8333 5.33301Z" fill="#F7FCFF"/>
<path d="M14.5 12.916L13.9938 13.3838L14.0439 12.6964L13.3626 12.5923L13.9313 12.2029L13.5879 11.6053L14.2469 11.8071L14.5 11.166L14.7531 11.8071L15.4121 11.6053L15.0687 12.2029L15.6374 12.5923L14.9561 12.6964L15.0062 13.3838L14.5 12.916Z" fill="#F7FCFF"/>
<path d="M16.5417 8.39551L16.0273 8.6659L16.1256 8.0932L15.7095 7.68762L16.2845 7.60406L16.5417 7.08301L16.7988 7.60406L17.3738 7.68762L16.9577 8.0932L17.056 8.6659L16.5417 8.39551Z" fill="#F7FCFF"/>
</g>
</g>
<defs>
<clipPath id="clip0_871_2354">
<rect width="14.5833" height="12.25" fill="white" transform="translate(4 1.6665)"/>
</clipPath>
</defs>
</svg>
