<svg width="1642" height="1553" viewBox="0 0 1642 1553" fill="none" xmlns="http://www.w3.org/2000/svg">
<path d="M39.9631 465C39.9631 465 378.837 65.0489 639.963 221C994.174 432.544 -228.868 695.537 39.9631 1008.5C296.875 1307.59 644.143 387.783 968.463 612C1351.2 876.606 236.963 1552.5 236.963 1552.5" stroke="url(#paint0_radial_524_1604)" stroke-opacity="0.3"/>
<path d="M632.426 281.091C632.426 281.091 971.3 -118.861 1232.43 37.0904C1586.64 248.634 363.595 511.628 632.426 824.591C889.337 1123.68 1236.61 203.874 1560.93 428.091C1943.67 692.697 829.426 1368.59 829.426 1368.59" stroke="url(#paint1_radial_524_1604)" stroke-opacity="0.3"/>
<path d="M93.8234 448.281C93.8234 448.281 432.697 48.3296 693.823 204.281C1048.03 415.824 -175.008 678.818 93.8234 991.781C350.735 1290.87 698.004 371.064 1022.32 595.281C1405.06 859.887 290.823 1535.78 290.823 1535.78" stroke="url(#paint2_radial_524_1604)" stroke-opacity="0.3"/>
<path d="M147.684 431.562C147.684 431.562 486.557 31.6109 747.684 187.562C1101.89 399.106 -121.147 662.099 147.684 975.062C404.595 1274.15 751.864 354.345 1076.18 578.562C1458.92 843.168 344.684 1519.06 344.684 1519.06" stroke="url(#paint3_radial_524_1604)" stroke-opacity="0.3"/>
<path d="M201.543 414.843C201.543 414.843 540.417 14.8916 801.543 170.843C1155.75 382.386 -67.2878 645.38 201.543 958.343C458.455 1257.43 805.724 337.626 1130.04 561.843C1512.78 826.449 398.543 1502.34 398.543 1502.34" stroke="url(#paint4_radial_524_1604)" stroke-opacity="0.3"/>
<path d="M255.404 398.124C255.404 398.124 594.278 -1.82761 855.404 154.124C1209.62 365.667 -13.4265 628.661 255.404 941.624C512.316 1240.71 859.585 320.907 1183.9 545.124C1566.65 809.73 452.404 1485.62 452.404 1485.62" stroke="url(#paint5_radial_524_1604)" stroke-opacity="0.3"/>
<path d="M309.264 381.405C309.264 381.405 648.137 -18.5464 909.264 137.405C1263.47 348.948 40.4329 611.942 309.264 924.905C566.175 1223.99 913.444 304.188 1237.76 528.405C1620.5 793.011 506.264 1468.9 506.264 1468.9" stroke="url(#paint6_radial_524_1604)" stroke-opacity="0.3"/>
<path d="M363.125 364.686C363.125 364.686 701.999 -35.2656 963.125 120.686C1317.34 332.229 94.2942 595.223 363.125 908.186C620.037 1207.27 967.306 287.469 1291.63 511.686C1674.37 776.292 560.125 1452.19 560.125 1452.19" stroke="url(#paint7_radial_524_1604)" stroke-opacity="0.3"/>
<path d="M416.985 347.967C416.985 347.967 755.858 -51.9843 1016.98 103.967C1371.2 315.51 148.154 578.504 416.985 891.467C673.896 1190.55 1021.16 270.75 1345.48 494.967C1728.23 759.573 613.985 1435.47 613.985 1435.47" stroke="url(#paint8_radial_524_1604)" stroke-opacity="0.3"/>
<path d="M470.846 331.248C470.846 331.248 809.72 -68.7036 1070.85 87.2476C1425.06 298.791 202.015 561.785 470.846 874.748C727.757 1173.83 1075.03 254.031 1399.35 478.248C1782.09 742.854 667.846 1418.75 667.846 1418.75" stroke="url(#paint9_radial_524_1604)" stroke-opacity="0.3"/>
<path d="M524.705 314.529C524.705 314.529 863.579 -85.4228 1124.71 70.5284C1478.92 282.072 255.874 545.066 524.705 858.029C781.617 1157.12 1128.89 237.312 1453.21 461.529C1835.95 726.135 721.705 1402.03 721.705 1402.03" stroke="url(#paint10_radial_524_1604)" stroke-opacity="0.3"/>
<path d="M578.566 297.81C578.566 297.81 917.439 -102.142 1178.57 53.8096C1532.78 265.353 309.735 528.347 578.566 841.31C835.477 1140.4 1182.75 220.593 1507.07 444.81C1889.81 709.416 775.566 1385.31 775.566 1385.31" stroke="url(#paint11_radial_524_1604)" stroke-opacity="0.3"/>
<defs>
<radialGradient id="paint0_radial_524_1604" cx="0" cy="0" r="1" gradientUnits="userSpaceOnUse" gradientTransform="translate(524.751 868.705) rotate(90) scale(683.795 523.751)">
<stop offset="0.423077" stop-color="#666666" stop-opacity="0.2"/>
<stop offset="0.653846" stop-color="#F18F01"/>
</radialGradient>
<radialGradient id="paint1_radial_524_1604" cx="0" cy="0" r="1" gradientUnits="userSpaceOnUse" gradientTransform="translate(1117.21 684.795) rotate(90) scale(683.795 523.751)">
<stop offset="0.423077" stop-color="#666666" stop-opacity="0.2"/>
<stop offset="0.653846" stop-color="#F18F01"/>
</radialGradient>
<radialGradient id="paint2_radial_524_1604" cx="0" cy="0" r="1" gradientUnits="userSpaceOnUse" gradientTransform="translate(578.611 851.986) rotate(90) scale(683.795 523.751)">
<stop offset="0.423077" stop-color="#666666" stop-opacity="0.2"/>
<stop offset="0.653846" stop-color="#F18F01"/>
</radialGradient>
<radialGradient id="paint3_radial_524_1604" cx="0" cy="0" r="1" gradientUnits="userSpaceOnUse" gradientTransform="translate(632.472 835.267) rotate(90) scale(683.795 523.751)">
<stop offset="0.423077" stop-color="#666666" stop-opacity="0.2"/>
<stop offset="0.653846" stop-color="#F18F01"/>
</radialGradient>
<radialGradient id="paint4_radial_524_1604" cx="0" cy="0" r="1" gradientUnits="userSpaceOnUse" gradientTransform="translate(686.331 818.548) rotate(90) scale(683.795 523.751)">
<stop offset="0.423077" stop-color="#666666" stop-opacity="0.2"/>
<stop offset="0.653846" stop-color="#F18F01"/>
</radialGradient>
<radialGradient id="paint5_radial_524_1604" cx="0" cy="0" r="1" gradientUnits="userSpaceOnUse" gradientTransform="translate(740.192 801.828) rotate(90) scale(683.795 523.751)">
<stop offset="0.423077" stop-color="#666666" stop-opacity="0.2"/>
<stop offset="0.653846" stop-color="#F18F01"/>
</radialGradient>
<radialGradient id="paint6_radial_524_1604" cx="0" cy="0" r="1" gradientUnits="userSpaceOnUse" gradientTransform="translate(794.052 785.11) rotate(90) scale(683.795 523.751)">
<stop offset="0.423077" stop-color="#666666" stop-opacity="0.2"/>
<stop offset="0.653846" stop-color="#F18F01"/>
</radialGradient>
<radialGradient id="paint7_radial_524_1604" cx="0" cy="0" r="1" gradientUnits="userSpaceOnUse" gradientTransform="translate(847.913 768.39) rotate(90) scale(683.795 523.751)">
<stop offset="0.423077" stop-color="#666666" stop-opacity="0.2"/>
<stop offset="0.653846" stop-color="#F18F01"/>
</radialGradient>
<radialGradient id="paint8_radial_524_1604" cx="0" cy="0" r="1" gradientUnits="userSpaceOnUse" gradientTransform="translate(901.773 751.672) rotate(90) scale(683.795 523.751)">
<stop offset="0.423077" stop-color="#666666" stop-opacity="0.2"/>
<stop offset="0.653846" stop-color="#F18F01"/>
</radialGradient>
<radialGradient id="paint9_radial_524_1604" cx="0" cy="0" r="1" gradientUnits="userSpaceOnUse" gradientTransform="translate(955.634 734.952) rotate(90) scale(683.795 523.751)">
<stop offset="0.423077" stop-color="#666666" stop-opacity="0.2"/>
<stop offset="0.653846" stop-color="#F18F01"/>
</radialGradient>
<radialGradient id="paint10_radial_524_1604" cx="0" cy="0" r="1" gradientUnits="userSpaceOnUse" gradientTransform="translate(1009.49 718.233) rotate(90) scale(683.795 523.751)">
<stop offset="0.423077" stop-color="#666666" stop-opacity="0.2"/>
<stop offset="0.653846" stop-color="#F18F01"/>
</radialGradient>
<radialGradient id="paint11_radial_524_1604" cx="0" cy="0" r="1" gradientUnits="userSpaceOnUse" gradientTransform="translate(1063.35 701.514) rotate(90) scale(683.795 523.751)">
<stop offset="0.423077" stop-color="#666666" stop-opacity="0.2"/>
<stop offset="0.653846" stop-color="#F18F01"/>
</radialGradient>
</defs>
</svg>
