<svg width="19" height="15" viewBox="0 0 19 15" fill="none" xmlns="http://www.w3.org/2000/svg">
<mask id="mask0_832_1177" style="mask-type:luminance" maskUnits="userSpaceOnUse" x="0" y="0" width="19" height="15">
<rect x="0.333328" y="0.5" width="18.6667" height="14" fill="white"/>
</mask>
<g mask="url(#mask0_832_1177)">
<path fill-rule="evenodd" clip-rule="evenodd" d="M5 0.5H14.3333V14.5H5V0.5Z" fill="#F7FCFF"/>
<path fill-rule="evenodd" clip-rule="evenodd" d="M9.6529 4.5835L9.66666 11.5835H9.31695L9.53152 9.85119C7.96227 10.1336 7.24252 10.2035 7.37225 10.0611C7.50198 9.91867 7.60421 9.71682 7.67893 9.45554L5.58333 8.05743C5.8037 8.05466 6.00353 7.99997 6.18282 7.89334C6.3621 7.78671 6.27246 7.41721 5.91389 6.78484L6.97193 6.93877L7.37225 6.50372L8.17052 7.33919H8.52935L8.17052 5.42549L8.81372 5.78477L9.6529 4.5835ZM9.6529 4.5835L10.5196 5.78477L11.1628 5.42549L10.804 7.33919H11.1628L11.9611 6.50372L12.3614 6.93877L13.4194 6.78484C13.0609 7.41721 12.9712 7.78671 13.1505 7.89334C13.3298 7.99997 13.5296 8.05466 13.75 8.05743L11.6544 9.45554C11.7291 9.71682 11.8313 9.91867 11.9611 10.0611C12.0908 10.2035 11.3711 10.1336 9.80181 9.85119L10.0164 11.5835H9.66666L9.6529 4.5835Z" fill="#E31D1C"/>
<path fill-rule="evenodd" clip-rule="evenodd" d="M14.3333 0.5H19V14.5H14.3333V0.5Z" fill="#E31D1C"/>
<path fill-rule="evenodd" clip-rule="evenodd" d="M0.333328 0.5H5V14.5H0.333328V0.5Z" fill="#E31D1C"/>
</g>
</svg>
