<svg width="23" height="23" viewBox="0 0 23 23" fill="none" xmlns="http://www.w3.org/2000/svg">
<g clip-path="url(#clip0_844_3546)">
<mask id="mask0_844_3546" style="mask-type:luminance" maskUnits="userSpaceOnUse" x="0" y="0" width="23" height="23">
<path d="M23 0H0V23H23V0Z" fill="white"/>
</mask>
<g mask="url(#mask0_844_3546)">
<path d="M11.4998 23C17.8511 23 22.9999 17.8512 22.9999 11.5C22.9999 5.14872 17.8511 0 11.4998 0C5.14854 0 -0.000183105 5.14872 -0.000183105 11.5C-0.000183105 17.8512 5.14854 23 11.4998 23Z" fill="#008799"/>
<path d="M9.28874 17.0821C6.7247 17.0821 4.62894 14.9868 4.62894 12.4223C4.62894 10.6026 5.67682 9.00319 7.22058 8.25891V6.57715C4.82168 7.43183 3.08472 9.72033 3.08472 12.4223C3.08472 15.8415 5.86956 18.6264 9.28874 18.6264C11.9908 18.6264 14.2793 16.8894 15.134 14.4905H13.4522C12.7079 16.0347 11.1085 17.0821 9.28874 17.0821Z" fill="#FCFBFF"/>
<path d="M17.6364 11.0018V9.11449C18.2807 9.27575 18.7872 9.48272 18.7872 10.0353C18.7872 10.5417 18.3499 10.91 17.6364 11.0018ZM16.762 12.7508H17.6829V12.0374C19.0405 11.876 19.9153 11.0935 19.9153 10.0349C19.9153 8.56192 18.7414 8.23976 17.6367 8.03242V6.07601C18.1663 6.12209 18.7414 6.28298 19.271 6.53642V5.38561C18.7645 5.2013 18.2123 5.08648 17.6829 5.06345V4.37305H16.762V5.06345C15.3582 5.22473 14.5526 6.00728 14.5526 6.99681C14.5526 8.49281 15.7034 8.83801 16.8082 9.04536V11.0018C16.1407 10.9096 15.4274 10.6335 14.5987 10.1962V11.4161C15.3121 11.7613 16.0486 11.9917 16.762 12.0374V12.7508ZM16.8082 7.94065C16.1638 7.8024 15.6804 7.5724 15.6804 6.99681C15.6804 6.46729 16.0947 6.14513 16.8082 6.07601V7.94025V7.94065Z" fill="#FCFBFF"/>
<path d="M8.92777 11.9757H7.83435L10.2912 5.14844H11.4813L13.9382 11.9757H12.8448L10.9146 6.38854H10.8613L8.92777 11.9757ZM9.11111 9.30212H12.658V10.1689H9.11111V9.30212Z" fill="#FCFBFF"/>
</g>
</g>
<defs>
<clipPath id="clip0_844_3546">
<rect width="23" height="23" fill="white"/>
</clipPath>
</defs>
</svg>
