<svg width="23" height="23" viewBox="0 0 23 23" fill="none" xmlns="http://www.w3.org/2000/svg">
<g clip-path="url(#clip0_835_1429)">
<mask id="mask0_835_1429" style="mask-type:luminance" maskUnits="userSpaceOnUse" x="0" y="0" width="23" height="23">
<path d="M23 0H0V23H23V0Z" fill="white"/>
</mask>
<g mask="url(#mask0_835_1429)">
<path d="M11.5 23C17.8512 23 23 17.8512 23 11.5C23 5.14872 17.8512 0 11.5 0C5.14869 0 -4.19617e-05 5.14872 -4.19617e-05 11.5C-4.19617e-05 17.8512 5.14869 23 11.5 23Z" fill="#4EEAFF"/>
<path d="M9.12012 17.1368C6.55608 17.1368 4.46032 15.0415 4.46032 12.477C4.46032 10.6573 5.5082 9.05788 7.05196 8.3136V6.63184C4.65306 7.48652 2.9161 9.77502 2.9161 12.477C2.9161 15.8962 5.70094 18.681 9.12012 18.681C11.8221 18.681 14.1106 16.9441 14.9653 14.5452H13.2835C12.5393 16.0894 10.9399 17.1368 9.12012 17.1368Z" fill="#070010"/>
<path d="M17.8051 10.9077V9.02036C18.4495 9.18164 18.9559 9.38861 18.9559 9.94118C18.9559 10.4477 18.5186 10.8159 17.8051 10.9077ZM16.9308 12.6568H17.8516V11.9433C19.2094 11.7821 20.0841 10.9995 20.0841 9.9408C20.0841 8.4678 18.9103 8.14563 17.8055 7.93827V5.98182C18.335 6.0279 18.9103 6.18879 19.4397 6.44222V5.29139C18.9333 5.10707 18.381 4.99227 17.8516 4.96922V4.27881H16.9308V4.96922C15.5268 5.1305 14.7213 5.91308 14.7213 6.90264C14.7213 8.39867 15.8721 8.74389 16.9768 8.95125V10.9077C16.3094 10.8155 15.596 10.5394 14.7673 10.1021V11.322C15.4807 11.6672 16.2173 11.8977 16.9308 11.9433V12.6568ZM16.9768 7.84649C16.3324 7.70826 15.849 7.47825 15.849 6.90264C15.849 6.37311 16.2633 6.05094 16.9768 5.98182V7.84611V7.84649Z" fill="#070010"/>
<path d="M14.1069 7.30572H13.0945C13.0555 7.08938 12.983 6.89901 12.877 6.7346C12.7711 6.57019 12.6413 6.43065 12.4876 6.316C12.3341 6.20134 12.1621 6.11482 11.9717 6.05641C11.7835 5.998 11.5834 5.96879 11.3714 5.96879C10.9885 5.96879 10.6456 6.06506 10.3427 6.25759C10.042 6.45012 9.80407 6.73243 9.62885 7.10453C9.45578 7.47661 9.36925 7.93091 9.36925 8.46742C9.36925 9.00824 9.45578 9.4647 9.62885 9.83679C9.80407 10.2089 10.0431 10.4901 10.346 10.6805C10.6489 10.8708 10.9896 10.966 11.3682 10.966C11.578 10.966 11.777 10.9379 11.9652 10.8817C12.1556 10.8233 12.3275 10.7378 12.4812 10.6253C12.6348 10.5128 12.7645 10.3755 12.8706 10.2132C12.9788 10.0488 13.0534 9.86058 13.0945 9.64858L14.1069 9.65182C14.0528 9.97848 13.9479 10.2792 13.7922 10.5539C13.6385 10.8265 13.4406 11.0623 13.1983 11.2613C12.9582 11.4582 12.6835 11.6107 12.3741 11.7189C12.0648 11.827 11.7272 11.8812 11.3617 11.8812C10.7862 11.8812 10.2735 11.7448 9.82354 11.4723C9.37358 11.1975 9.0188 10.8049 8.75919 10.2943C8.50177 9.78379 8.37305 9.17482 8.37305 8.46742C8.37305 7.75784 8.50285 7.14887 8.76244 6.64049C9.02204 6.12996 9.37682 5.7384 9.82679 5.46582C10.2768 5.19108 10.7884 5.05371 11.3617 5.05371C11.7142 5.05371 12.0431 5.10454 12.3481 5.20622C12.6553 5.30573 12.9312 5.45284 13.1756 5.64754C13.42 5.84007 13.6223 6.07588 13.7824 6.35494C13.9425 6.63184 14.0507 6.94877 14.1069 7.30572Z" fill="#070010"/>
</g>
</g>
<defs>
<clipPath id="clip0_835_1429">
<rect width="23" height="23" fill="white"/>
</clipPath>
</defs>
</svg>
