<svg width="23" height="23" viewBox="0 0 23 23" fill="none" xmlns="http://www.w3.org/2000/svg">
<g clip-path="url(#clip0_844_3530)">
<mask id="mask0_844_3530" style="mask-type:luminance" maskUnits="userSpaceOnUse" x="0" y="0" width="23" height="23">
<path d="M23 0H0V23H23V0Z" fill="white"/>
</mask>
<g mask="url(#mask0_844_3530)">
<path d="M11.5 23C17.8513 23 23 17.8512 23 11.5C23 5.14873 17.8513 0 11.5 0C5.14879 0 6.10352e-05 5.14873 6.10352e-05 11.5C6.10352e-05 17.8512 5.14879 23 11.5 23Z" fill="#7005FC"/>
<path d="M11.2134 17.6891C8.64932 17.6891 6.55356 15.5938 6.55356 13.0293C6.55356 11.2095 7.60144 9.61012 9.1452 8.86584V7.18408C6.7463 8.03876 5.00934 10.3273 5.00934 13.0293C5.00934 16.4485 7.79418 19.2334 11.2134 19.2334C13.9154 19.2334 16.2039 17.4964 17.0586 15.0975H15.3769C14.6326 16.6417 13.0332 17.6891 11.2134 17.6891Z" fill="#FCFBFF"/>
<path d="M12.1679 13.1556V3.78809H17.9769V5.00475H13.5812V7.8589H17.5606V9.071H13.5812V13.1556H12.1679ZM10.7683 11.5455V10.5987H14.9718V11.5455H10.7683Z" fill="#FCFBFF"/>
<path d="M11.2134 17.6891C8.64932 17.6891 6.55356 15.5938 6.55356 13.0293C6.55356 11.2095 7.60144 9.61012 9.1452 8.86584V7.18408C6.7463 8.03876 5.00934 10.3273 5.00934 13.0293C5.00934 16.4485 7.79418 19.2334 11.2134 19.2334C13.9154 19.2334 16.2039 17.4964 17.0586 15.0975H15.3769C14.6326 16.6417 13.0332 17.6891 11.2134 17.6891Z" fill="#FCFBFF"/>
<path d="M12.2072 13.0721V3.87207H17.9124V5.06699H13.5953V7.87011H17.5036V9.06055H13.5953V13.0721H12.2072ZM10.8326 11.4908V10.5609H14.9609V11.4908H10.8326Z" fill="#FCFBFF"/>
</g>
</g>
<defs>
<clipPath id="clip0_844_3530">
<rect width="23" height="23" fill="white"/>
</clipPath>
</defs>
</svg>
