<svg width="23" height="23" viewBox="0 0 23 23" fill="none" xmlns="http://www.w3.org/2000/svg">
<g clip-path="url(#clip0_844_3444)">
<mask id="mask0_844_3444" style="mask-type:luminance" maskUnits="userSpaceOnUse" x="0" y="0" width="23" height="23">
<path d="M23 0H0V23H23V0Z" fill="white"/>
</mask>
<g mask="url(#mask0_844_3444)">
<path d="M11.5 23C17.8512 23 23 17.8513 23 11.5C23 5.14872 17.8512 0 11.5 0C5.14872 0 0 5.14872 0 11.5C0 17.8513 5.14872 23 11.5 23Z" fill="#FDF6EF"/>
<path d="M3.48941 11.2752C3.48941 11.4762 3.49723 11.6753 3.51149 11.8727H5.74525C5.72501 11.6753 5.71443 11.4762 5.71443 11.2752C5.71443 9.7374 6.31335 8.29162 7.40079 7.20418C7.82583 6.77914 8.30561 6.42908 8.82403 6.15998V3.74268C5.71673 4.83472 3.48895 7.79436 3.48895 11.2747L3.48941 11.2752Z" fill="#DF9806"/>
<path d="M7.40084 15.3455C6.45554 14.4002 5.87962 13.184 5.7453 11.8721H3.51154C3.62884 13.4595 4.21074 14.9173 5.12108 16.111H8.34522C8.00804 15.892 7.69156 15.6367 7.40038 15.3455H7.40084Z" fill="#176092"/>
<path d="M15.5424 15.3456C15.2517 15.6363 14.9347 15.8921 14.5975 16.111H17.8217C18.3111 15.4693 18.7053 14.7513 18.9841 13.978H16.5576C16.2926 14.4753 15.9522 14.9362 15.5424 15.3456Z" fill="#186092"/>
<path d="M11.4714 17.0318C10.3449 17.0318 9.26799 16.7102 8.34523 16.1108H5.12109C6.57929 18.0231 8.88113 19.2572 11.4714 19.2572C14.0616 19.2572 16.3635 18.0231 17.8217 16.1108H14.5975C13.6748 16.7102 12.5979 17.0318 11.4714 17.0318Z" fill="#C3221A"/>
<path d="M11.5443 12.4316C11.3093 12.5489 10.8391 12.6666 10.237 12.6666C8.84135 12.6666 7.79071 11.7853 7.79071 10.1619C7.79071 8.53856 8.84089 7.56152 10.3764 7.56152C10.9932 7.56152 11.3829 7.69354 11.5516 7.78186L11.3976 8.3035C11.1552 8.1862 10.8102 8.09788 10.3985 8.09788C9.23787 8.09788 8.46645 8.83986 8.46645 10.1398C8.46645 11.3519 9.16427 12.1307 10.369 12.1307C10.7582 12.1307 11.1552 12.0498 11.4123 11.9251L11.5443 12.432V12.4316Z" fill="#020202"/>
<path d="M16.2893 10.0662C16.2893 11.7706 15.2533 12.674 13.9902 12.674C12.727 12.674 11.7647 11.6602 11.7647 10.1619C11.7647 8.59008 12.7417 7.56152 14.0638 7.56152C15.3858 7.56152 16.2893 8.59744 16.2893 10.0662ZM12.4478 10.1467C12.4478 11.2043 13.021 12.1519 14.027 12.1519C15.033 12.1519 15.6135 11.219 15.6135 10.0952C15.6135 9.1108 15.0992 8.0827 14.0343 8.0827C12.9694 8.0827 12.4478 9.05974 12.4478 10.1467Z" fill="#020202"/>
<path d="M16.987 7.70115C17.2957 7.64963 17.6995 7.60547 18.2138 7.60547C18.8454 7.60547 19.3082 7.75221 19.6021 8.01671C19.874 8.25177 20.0354 8.61149 20.0354 9.05263C20.0354 9.49377 19.9034 9.85349 19.6536 10.1102C19.3155 10.4699 18.7649 10.6539 18.1402 10.6539C17.9493 10.6539 17.7731 10.6465 17.6259 10.6097V12.5933H16.987V7.70115ZM17.6259 10.0885C17.7653 10.1253 17.942 10.1401 18.1549 10.1401C18.9264 10.1401 19.3965 9.76563 19.3965 9.08253C19.3965 8.39943 18.9337 8.11285 18.2285 8.11285C17.9493 8.11285 17.7363 8.13493 17.6264 8.16437V10.089L17.6259 10.0885Z" fill="#020202"/>
</g>
</g>
<defs>
<clipPath id="clip0_844_3444">
<rect width="23" height="23" fill="white"/>
</clipPath>
</defs>
</svg>
