<svg width="23" height="23" viewBox="0 0 23 23" fill="none" xmlns="http://www.w3.org/2000/svg">
<g clip-path="url(#clip0_835_1439)">
<mask id="mask0_835_1439" style="mask-type:luminance" maskUnits="userSpaceOnUse" x="0" y="0" width="23" height="23">
<path d="M23 0H0V23H23V0Z" fill="white"/>
</mask>
<g mask="url(#mask0_835_1439)">
<path d="M11.5 23C17.8512 23 23 17.8513 23 11.5C23 5.14873 17.8512 0 11.5 0C5.14869 0 -4.19617e-05 5.14873 -4.19617e-05 11.5C-4.19617e-05 17.8513 5.14869 23 11.5 23Z" fill="#4EEAFF"/>
<path d="M10.8186 17.7106C8.25456 17.7106 6.1588 15.6153 6.1588 13.0508C6.1588 11.231 7.20668 9.63161 8.75044 8.88733V7.20557C6.35154 8.06025 4.61458 10.3487 4.61458 13.0508C4.61458 16.47 7.39942 19.2548 10.8186 19.2548C13.5207 19.2548 15.8092 17.5178 16.6638 15.1189H14.9821C14.2378 16.6632 12.6384 17.7106 10.8186 17.7106Z" fill="#070010"/>
<path d="M12.7308 10.2113H16.5875L16.9352 9.05168H12.3826C12.3536 8.8778 12.3536 8.7329 12.3536 8.55856C12.3536 8.38422 12.3536 8.2108 12.3826 8.03646H17.254L17.6018 6.8768H12.7014C13.2235 5.74612 14.2962 5.07912 15.7461 5.07912C16.5291 5.07912 17.283 5.28198 17.979 5.65918L18.3847 4.35416C17.6018 3.94844 16.674 3.74512 15.7461 3.74512C13.5713 3.74512 11.8605 4.99218 11.2229 6.84782H9.94688L9.59912 7.94952H10.9911C10.9621 8.15238 10.9621 8.35524 10.9621 8.55856C10.9621 8.76188 10.9621 8.9353 10.9911 9.13862H9.94734L9.59958 10.2403H11.2524C11.8614 12.0959 13.5432 13.314 15.7176 13.314C16.6744 13.314 17.5733 13.0532 18.3272 12.5891V11.0812C17.6022 11.6323 16.7324 11.98 15.7466 11.98C14.3546 11.98 13.2529 11.313 12.7308 10.2113Z" fill="#070010"/>
</g>
</g>
<defs>
<clipPath id="clip0_835_1439">
<rect width="23" height="23" fill="white"/>
</clipPath>
</defs>
</svg>
