<svg width="23" height="23" viewBox="0 0 23 23" fill="none" xmlns="http://www.w3.org/2000/svg">
<g clip-path="url(#clip0_835_1448)">
<mask id="mask0_835_1448" style="mask-type:luminance" maskUnits="userSpaceOnUse" x="0" y="0" width="23" height="23">
<path d="M23 0H0V23H23V0Z" fill="white"/>
</mask>
<g mask="url(#mask0_835_1448)">
<path d="M11.5001 23C17.8513 23 23.0001 17.8512 23.0001 11.5C23.0001 5.14872 17.8513 0 11.5001 0C5.14882 0 9.15527e-05 5.14872 9.15527e-05 11.5C9.15527e-05 17.8512 5.14882 23 11.5001 23Z" fill="#82FF68"/>
<path d="M11.3949 11.9312C12.7397 11.2148 12.9911 10.4104 12.7145 9.45523H11.2441V8.52517H12.3375C12.0359 7.92189 11.7468 7.36889 11.7468 6.46396C11.7468 5.05632 12.8906 3.9126 14.7003 3.9126C16.5982 3.9126 17.767 5.03118 17.7796 6.95413H16.4097C16.4222 5.72244 15.7058 5.13172 14.7003 5.13172C13.7201 5.13172 13.1041 5.64703 13.1041 6.50167C13.1041 7.28091 13.4687 7.90932 13.7703 8.52517H16.6359V9.45523H14.1222C14.2982 10.3476 14.0091 11.2399 13.255 11.8935H17.8927V13.1126H11.3949V11.9312Z" fill="#070010"/>
<path d="M11.3114 17.5431C8.74737 17.5431 6.65161 15.4478 6.65161 12.8833C6.65161 11.0635 7.69949 9.46413 9.24325 8.71985V7.03809C6.84435 7.89277 5.10739 10.1813 5.10739 12.8833C5.10739 16.3024 7.89223 19.0873 11.3114 19.0873C14.0134 19.0873 16.3019 17.3503 17.1566 14.9514H15.4749C14.7306 16.4956 13.1312 17.5431 11.3114 17.5431Z" fill="#070010"/>
</g>
</g>
<defs>
<clipPath id="clip0_835_1448">
<rect width="23" height="23" fill="white"/>
</clipPath>
</defs>
</svg>
