<svg width="23" height="23" viewBox="0 0 23 23" fill="none" xmlns="http://www.w3.org/2000/svg">
<g clip-path="url(#clip0_844_3477)">
<mask id="mask0_844_3477" style="mask-type:luminance" maskUnits="userSpaceOnUse" x="0" y="0" width="23" height="23">
<path d="M23 0H0V23H23V0Z" fill="white"/>
</mask>
<g mask="url(#mask0_844_3477)">
<path d="M11.4998 23C17.8511 23 22.9999 17.8513 22.9999 11.5C22.9999 5.14873 17.8511 0 11.4998 0C5.14854 0 -0.000183105 5.14873 -0.000183105 11.5C-0.000183105 17.8513 5.14854 23 11.4998 23Z" fill="#8C35FD"/>
<path d="M16.5949 10.4214C16.2177 11.185 15.5351 11.6946 14.7646 11.8206V6.26065C15.5185 6.38393 16.1883 6.87429 16.5701 7.61075H18.1626C17.6649 6.06285 16.3737 4.92343 14.7646 4.76933V3.74951H13.7783V4.79923C11.8243 5.10973 10.3955 6.89085 10.3955 9.04135C10.3955 11.1919 11.8238 12.9729 13.7783 13.2834V14.3897H14.7646V13.3133C16.3911 13.1574 17.692 11.9954 18.1782 10.4223H16.5949V10.4214ZM11.8749 9.04043C11.8749 7.63421 12.7153 6.60105 13.7783 6.31171V11.7696C12.7157 11.4803 11.8749 10.4467 11.8749 9.04089V9.04043Z" fill="white"/>
<path d="M11.0257 17.7066C8.4617 17.7066 6.36594 15.6113 6.36594 13.0468C6.36594 11.2271 7.41382 9.6277 8.95758 8.88342V7.20166C6.55868 8.05634 4.82172 10.3448 4.82172 13.0468C4.82172 16.466 7.60656 19.2509 11.0257 19.2509C13.7278 19.2509 16.0163 17.5139 16.8709 15.115H15.1892C14.4449 16.6592 12.8455 17.7066 11.0257 17.7066Z" fill="white"/>
</g>
</g>
<defs>
<clipPath id="clip0_844_3477">
<rect width="23" height="23" fill="white"/>
</clipPath>
</defs>
</svg>
