<svg width="23" height="24" viewBox="0 0 23 24" fill="none" xmlns="http://www.w3.org/2000/svg">
<g clip-path="url(#clip0_844_3505)">
<mask id="mask0_844_3505" style="mask-type:luminance" maskUnits="userSpaceOnUse" x="0" y="0" width="23" height="24">
<path d="M23 0.5H0V23.5H23V0.5Z" fill="white"/>
</mask>
<g mask="url(#mask0_844_3505)">
<path d="M11.5 23.5C17.8512 23.5 23 18.3512 23 12C23 5.64872 17.8512 0.5 11.5 0.5C5.14872 0.5 0 5.64872 0 12C0 18.3512 5.14872 23.5 11.5 23.5Z" fill="#FF5FFA"/>
<path d="M11.285 18.0969C8.72097 18.0969 6.62521 16.0016 6.62521 13.4371C6.62521 11.6173 7.67309 10.0178 9.21685 9.27356V7.5918C6.81795 8.44648 5.08099 10.735 5.08099 13.4371C5.08099 16.8562 7.86583 19.6411 11.285 19.6411C13.987 19.6411 16.2755 17.9041 17.1302 15.5052H15.4484C14.7041 17.0494 13.1047 18.0969 11.285 18.0969Z" fill="#070010"/>
<path d="M12.7306 4.38037L14.9318 9.33975L13.9211 9.91025L11.2392 4.38037H12.7306ZM14.231 9.32627L16.4232 4.38037H17.9146L15.2328 9.91025L14.231 9.32627ZM15.2597 8.74228V13.5804H13.8761V8.74228H15.2597ZM17.2093 8.94443V9.85185H11.8815V8.94443H17.2093ZM17.2093 10.7233V11.6308H11.8815V10.7233H17.2093Z" fill="#070010"/>
</g>
</g>
<defs>
<clipPath id="clip0_844_3505">
<rect width="23" height="23" fill="white" transform="translate(0 0.5)"/>
</clipPath>
</defs>
</svg>
