<svg width="23" height="23" viewBox="0 0 23 23" fill="none" xmlns="http://www.w3.org/2000/svg">
<g clip-path="url(#clip0_844_3463)">
<mask id="mask0_844_3463" style="mask-type:luminance" maskUnits="userSpaceOnUse" x="0" y="0" width="23" height="23">
<path d="M23 0H0V23H23V0Z" fill="white"/>
</mask>
<g mask="url(#mask0_844_3463)">
<path d="M11.5 23C17.8513 23 23 17.8513 23 11.5C23 5.14872 17.8513 0 11.5 0C5.14879 0 6.10352e-05 5.14872 6.10352e-05 11.5C6.10352e-05 17.8513 5.14879 23 11.5 23Z" fill="#7005FC"/>
<path d="M17.4162 13.2761H18.9894L14.8926 6.90646L18.05 3.74902H15.2542L11.7766 7.22616V3.74902H9.79907V13.2761H11.7766V10.0225L12.4799 9.31916L15.0173 13.2761H16.5905L13.4008 8.39824L13.9717 7.82738L17.4162 13.2761Z" fill="white"/>
<path d="M10.2149 17.7067C7.65091 17.7067 5.55515 15.6114 5.55515 13.0469C5.55515 11.2271 6.60303 9.6277 8.14679 8.88342V7.20166C5.74789 8.05634 4.01093 10.3448 4.01093 13.0469C4.01093 16.466 6.79577 19.2509 10.2149 19.2509C12.9169 19.2509 15.2054 17.5139 16.0601 15.115H14.3784C13.6341 16.6592 12.0347 17.7067 10.2149 17.7067Z" fill="white"/>
</g>
</g>
<defs>
<clipPath id="clip0_844_3463">
<rect width="23" height="23" fill="white"/>
</clipPath>
</defs>
</svg>
