<svg width="23" height="23" viewBox="0 0 23 23" fill="none" xmlns="http://www.w3.org/2000/svg">
<g clip-path="url(#clip0_844_3444)">
<mask id="mask0_844_3444" style="mask-type:luminance" maskUnits="userSpaceOnUse" x="0" y="0" width="23" height="23">
<path d="M23 0H0V23H23V0Z" fill="white"/>
</mask>
<g mask="url(#mask0_844_3444)">
<path d="M11.5 23C17.8512 23 23 17.8513 23 11.5C23 5.14872 17.8512 0 11.5 0C5.14872 0 0 5.14872 0 11.5C0 17.8513 5.14872 23 11.5 23Z" fill="#FF5FFA"/>
<path d="M11.1356 17.5431C8.57156 17.5431 6.4758 15.4478 6.4758 12.8833C6.4758 11.0635 7.52368 9.46413 9.06744 8.71985V7.03809C6.66854 7.89277 4.93158 10.1813 4.93158 12.8833C4.93158 16.3024 7.71642 19.0873 11.1356 19.0873C13.8376 19.0873 16.1261 17.3503 16.9808 14.9514H15.299C14.5547 16.4956 12.9553 17.5431 11.1356 17.5431Z" fill="#070010"/>
<path d="M12.7306 4.38037L14.9318 9.33975L13.9211 9.91025L11.2392 4.38037H12.7306ZM14.231 9.32627L16.4232 4.38037H17.9146L15.2328 9.91025L14.231 9.32627ZM15.2597 8.74228V13.5804H13.8761V8.74228H15.2597ZM17.2093 8.94443V9.85185H11.8815V8.94443H17.2093ZM17.2093 10.7233V11.6308H11.8815V10.7233H17.2093Z" fill="#070010"/>
</g>
</g>
<defs>
<clipPath id="clip0_844_3444">
<rect width="23" height="23" fill="white"/>
</clipPath>
</defs>
</svg>
