<svg width="23" height="23" viewBox="0 0 23 23" fill="none" xmlns="http://www.w3.org/2000/svg">
<g clip-path="url(#clip0_844_3559)">
<mask id="mask0_844_3559" style="mask-type:luminance" maskUnits="userSpaceOnUse" x="0" y="0" width="23" height="23">
<path d="M23 0H0V23H23V0Z" fill="white"/>
</mask>
<g mask="url(#mask0_844_3559)">
<path d="M11.4998 23C17.8511 23 22.9999 17.8513 22.9999 11.5C22.9999 5.14873 17.8511 0 11.4998 0C5.14854 0 -0.000183105 5.14873 -0.000183105 11.5C-0.000183105 17.8513 5.14854 23 11.4998 23Z" fill="#23CC00"/>
<path d="M10.4206 17.7101C7.85653 17.7101 5.76077 15.6148 5.76077 13.0503C5.76077 11.2305 6.80865 9.63112 8.35241 8.88684V7.20508C5.95351 8.05976 4.21655 10.3483 4.21655 13.0503C4.21655 16.4695 7.00139 19.2544 10.4206 19.2544C13.1226 19.2544 15.4111 17.5174 16.2658 15.1185H14.584C13.8397 16.6627 12.2403 17.7101 10.4206 17.7101Z" fill="#FFEF43"/>
<path d="M10.7352 9.72758H10.8438C11.0342 9.72758 11.2518 9.70044 11.4147 9.70044L12.5563 13.1261H14.0518L12.5292 9.3467C13.2362 8.96628 13.7528 8.09596 13.7528 7.00852C13.7528 5.4045 12.7468 4.53418 10.8167 4.53418H9.37549V13.1256H10.7348V9.72712L10.7352 9.72758ZM10.7352 5.7035H10.9528C11.9588 5.7035 12.394 6.13866 12.394 7.14468C12.394 8.1507 11.9588 8.58586 10.9528 8.58586H10.7352V5.70396V5.7035Z" fill="#FFEF43"/>
<path d="M17.0971 8.28629L17.369 5.92097C17.6951 6.00239 18.0488 6.16569 18.4021 6.41041V5.05111C18.1303 4.88781 17.8313 4.77925 17.5323 4.72497L17.6684 3.74609H16.7438L16.6624 4.67069C15.3574 4.77925 14.5418 5.73099 14.5418 7.03601C14.5418 8.34103 15.3031 9.04805 16.1458 9.37419L15.874 11.6853C15.4936 11.5767 15.0584 11.3862 14.5689 11.0872V12.4737C14.9494 12.6642 15.3302 12.827 15.6835 12.9089L15.5474 13.9149H16.472L16.5805 12.9903C17.8855 12.9089 18.783 11.9029 18.783 10.5707C18.783 9.56463 18.2936 8.72191 17.0971 8.28675V8.28629ZM16.3629 8.04157C15.9278 7.82399 15.7378 7.47071 15.7378 6.98127C15.7378 6.32853 16.0368 5.92097 16.6348 5.83955L16.3629 8.04203V8.04157ZM16.6077 11.7938L16.8795 9.59131C17.3147 9.80889 17.5865 10.135 17.5865 10.6516C17.5865 11.2768 17.2604 11.7391 16.6077 11.7934V11.7938Z" fill="#FFEF43"/>
</g>
</g>
<defs>
<clipPath id="clip0_844_3559">
<rect width="23" height="23" fill="white"/>
</clipPath>
</defs>
</svg>
