<svg width="23" height="23" viewBox="0 0 23 23" fill="none" xmlns="http://www.w3.org/2000/svg">
<g clip-path="url(#clip0_835_1410)">
<mask id="mask0_835_1410" style="mask-type:luminance" maskUnits="userSpaceOnUse" x="0" y="0" width="23" height="23">
<path d="M23 0H0V23H23V0Z" fill="white"/>
</mask>
<g mask="url(#mask0_835_1410)">
<path d="M11.5002 23C17.8514 23 23.0002 17.8513 23.0002 11.5C23.0002 5.14873 17.8514 0 11.5002 0C5.14892 0 0.000198364 5.14873 0.000198364 11.5C0.000198364 17.8513 5.14892 23 11.5002 23Z" fill="#23CC00"/>
<path d="M11.4587 19.2614C14.1608 19.2614 16.4493 17.5244 17.3039 15.1255H15.6222C14.8779 16.6698 13.2785 17.7172 11.4587 17.7172C8.89468 17.7172 6.79892 15.6219 6.79892 13.0574C6.79892 11.2377 7.8468 9.63824 9.39056 8.89396V7.2122C6.99166 8.06688 5.2547 10.3554 5.2547 13.0574C5.2547 16.4766 8.03954 19.2614 11.4587 19.2614ZM15.0154 11.6792V9.41836C15.7873 9.61156 16.3941 9.8595 16.3941 10.5214C16.3941 11.1282 15.8701 11.5693 15.0154 11.6792ZM13.968 13.7745H15.0711V12.9198C16.6977 12.7266 17.7455 11.7892 17.7455 10.521C17.7455 8.75642 16.3393 8.37048 15.0159 8.12208V5.77838C15.6502 5.83358 16.3393 6.02632 16.9737 6.32992V4.9513C16.3669 4.7305 15.7054 4.59296 15.0711 4.56536V3.73828H13.968V4.56536C12.2863 4.75856 11.3212 5.69604 11.3212 6.88146C11.3212 8.67362 12.6998 9.08716 14.0232 9.33556V11.6792C13.2237 11.5688 12.3691 11.2381 11.3764 10.7142V12.1756C12.2311 12.5891 13.1133 12.8651 13.968 12.9198V13.7745ZM14.0232 8.01214C13.2513 7.84654 12.6722 7.571 12.6722 6.88146C12.6722 6.24712 13.1685 5.86118 14.0232 5.77838V8.01168V8.01214Z" fill="white"/>
</g>
</g>
<defs>
<clipPath id="clip0_835_1410">
<rect width="23" height="23" fill="white"/>
</clipPath>
</defs>
</svg>
