<svg width="23" height="23" viewBox="0 0 23 23" fill="none" xmlns="http://www.w3.org/2000/svg">
<g clip-path="url(#clip0_835_1418)">
<mask id="mask0_835_1418" style="mask-type:luminance" maskUnits="userSpaceOnUse" x="0" y="0" width="23" height="23">
<path d="M23 0H0V23H23V0Z" fill="white"/>
</mask>
<g mask="url(#mask0_835_1418)">
<path d="M11.4999 23C17.8511 23 22.9999 17.8512 22.9999 11.5C22.9999 5.14873 17.8511 0 11.4999 0C5.14857 0 -0.000154495 5.14873 -0.000154495 11.5C-0.000154495 17.8512 5.14857 23 11.4999 23Z" fill="#8C35FD"/>
<path d="M17.7558 13.0805H16.1826L13.6811 9.12354H15.2108L17.7558 13.0805Z" fill="#FCFBFF"/>
<path d="M10.9411 13.0803V3.88037H14.2204C14.9332 3.88037 15.5247 4.00316 15.9949 4.24874C16.468 4.49431 16.8214 4.83422 17.055 5.26846C17.2886 5.69971 17.4054 6.19835 17.4054 6.76436C17.4054 7.32738 17.2871 7.82302 17.0505 8.25128C16.8169 8.67654 16.4635 9.00746 15.9904 9.24405C15.5202 9.48064 14.9287 9.59893 14.216 9.59893H11.7317V8.40401H14.0901C14.5393 8.40401 14.9048 8.33962 15.1862 8.21085C15.4707 8.08207 15.6789 7.89489 15.8107 7.64932C15.9424 7.40375 16.0083 7.10877 16.0083 6.76436C16.0083 6.41696 15.941 6.11598 15.8062 5.86143C15.6744 5.60688 15.4662 5.41221 15.1817 5.27745C14.9002 5.13969 14.5304 5.07081 14.0722 5.07081H12.3293V13.0803H10.9411Z" fill="#FCFBFF"/>
<path d="M14.86 13.0801H15.7898L13.4864 9.49512H12.5566L14.86 13.0801Z" fill="#FCFBFF"/>
<path d="M11.473 17.5968C8.90892 17.5968 6.81316 15.5015 6.81316 12.937C6.81316 11.1173 7.86104 9.51784 9.4048 8.77356V7.0918C7.0059 7.94648 5.26894 10.235 5.26894 12.937C5.26894 16.3561 8.05378 19.141 11.473 19.141C14.175 19.141 16.4635 17.404 17.3182 15.0051H15.6364C14.8922 16.5493 13.2927 17.5968 11.473 17.5968Z" fill="#FCFBFF"/>
</g>
</g>
<defs>
<clipPath id="clip0_835_1418">
<rect width="23" height="23" fill="white"/>
</clipPath>
</defs>
</svg>
