<svg width="23" height="23" viewBox="0 0 23 23" fill="none" xmlns="http://www.w3.org/2000/svg">
<g clip-path="url(#clip0_866_2286)">
<mask id="mask0_866_2286" style="mask-type:luminance" maskUnits="userSpaceOnUse" x="0" y="0" width="23" height="23">
<path d="M23 0H0V23H23V0Z" fill="white"/>
</mask>
<g mask="url(#mask0_866_2286)">
<path d="M11.4999 23C17.8511 23 22.9999 17.8513 22.9999 11.5C22.9999 5.14872 17.8511 0 11.4999 0C5.1486 0 -0.00012207 5.14872 -0.00012207 11.5C-0.00012207 17.8513 5.1486 23 11.4999 23Z" fill="#CC00C5"/>
<path d="M17.6997 7.14265C17.5396 7.00649 15.4273 7.16197 15.4273 7.16197C15.0911 7.22775 15.0814 7.00189 15.0814 7.00189L15.0556 6.88965C15.0556 6.88965 14.5529 3.88079 12.2805 3.74463C12.2805 3.74463 10.6792 3.67241 9.23806 5.27551C9.23806 5.27551 8.24216 6.38365 8.03884 6.83997C7.96156 6.94347 7.84656 7.01249 7.71868 7.03227C7.71868 7.03227 5.68686 7.83267 5.4081 8.03921C5.12934 8.24575 5.21444 8.47941 5.21444 8.47941C5.22088 8.78071 5.3322 9.07007 5.52908 9.29777C5.72596 9.52547 5.99644 9.67727 6.2936 9.72695C6.2936 9.72695 6.50336 9.80237 7.15978 9.07051L7.96064 8.31933C7.96064 8.31933 8.58854 10.1626 8.68284 10.2523C8.77714 10.342 8.86362 10.4574 9.33788 10.4027C9.81168 10.3484 10.3977 9.98131 10.441 9.44173C10.441 9.44173 10.4906 9.32305 10.2087 9.04935C10.2087 9.04935 8.90226 7.46419 8.86822 7.42877C8.83464 7.39335 8.77392 7.32159 8.89536 7.17117C9.01726 7.02075 10.2179 5.15223 11.7777 5.02573C11.7777 5.02573 12.6954 4.91027 12.8651 6.02485C12.8651 6.02485 12.412 5.87259 12.2855 5.94803C12.159 6.02347 12.0693 6.10351 12.1112 6.44621V7.00511C12.1112 7.00971 12.1112 7.01479 12.1112 7.01939C12.1112 7.08011 12.0854 7.22453 11.7653 7.16197C11.7653 7.16197 9.647 7.00189 9.49336 7.14265C9.33972 7.28341 9.37974 7.32849 9.5205 7.51571L11.6181 10.2748C11.475 10.3778 11.3637 10.5186 11.2966 10.6819C11.2294 10.8447 11.2096 11.0237 11.2386 11.1971C11.3016 11.5747 11.6029 11.7523 11.8218 11.8323C11.9727 11.8875 12.1567 11.83 12.2938 11.9137C12.3297 11.9358 12.3568 11.9722 12.3623 12.031C12.3817 12.2376 12.5546 12.9147 12.545 13.0366C12.5353 13.1585 12.5785 13.1967 12.2809 13.2385C11.9833 13.2799 10.3273 13.3857 10.1995 13.9028L11.9391 13.9658C12.1655 13.9741 12.4079 14.0017 12.5634 14.1664C12.642 14.2496 12.7009 14.3494 12.7359 14.4585L12.7901 15.1678C12.7901 15.1678 12.7924 15.2078 12.7901 15.2303C12.7878 15.2529 12.78 15.275 12.7671 15.2938C12.7543 15.3127 12.7363 15.3279 12.7156 15.338C12.6949 15.3481 12.6604 15.355 12.6604 15.355L12.47 15.3647C12.47 15.3647 11.2947 15.4286 11.0863 16.005L12.1011 16.0363C12.3968 16.0455 12.7961 16.0441 12.8716 16.3302C12.8757 16.3463 12.8785 16.3638 12.8798 16.3817C12.8927 16.6154 12.8909 16.9852 12.8909 16.9852C12.8909 16.9852 12.8909 17.0943 12.6797 17.0943C12.4686 17.0943 11.6677 17.2769 11.6038 17.7346C11.6038 17.7346 12.7069 17.7475 12.7248 17.7553C12.7901 17.7778 12.8472 17.8188 12.8895 17.8735C12.9732 17.9821 12.9879 18.1311 12.9751 18.2673C12.9714 18.305 12.9645 18.3418 12.9544 18.3781C12.936 18.4439 12.8872 18.5166 12.8481 18.5722C12.82 18.6118 12.8053 18.6385 12.7888 18.684C12.7556 18.7737 12.7124 18.9315 12.775 19.0221C12.9157 19.1822 13.2552 19.2622 13.5933 19.2544C13.9314 19.2466 14.269 19.1854 14.4098 19.0221C14.5009 18.891 14.3684 18.6169 14.3684 18.6169C14.3684 18.6169 14.2884 18.5032 14.2658 18.4743C14.2065 18.3459 14.1908 18.201 14.2226 18.063C14.2276 17.994 14.2529 17.9282 14.2948 17.8735C14.3367 17.8188 14.3942 17.7778 14.4595 17.7553C14.4852 17.7475 15.5883 17.7346 15.5883 17.7346C15.5244 17.2732 14.7203 17.0943 14.5124 17.0943C14.3045 17.0943 14.3091 16.9917 14.3091 16.9917C14.3091 16.9917 14.3091 16.6218 14.3201 16.3882C14.3256 16.2713 14.4089 16.1881 14.4912 16.1347C14.5915 16.0694 14.7139 16.0551 14.8335 16.0519L16.115 16.0183C15.9066 15.4355 14.7313 15.378 14.7313 15.378L14.5409 15.3683C14.5409 15.3683 14.5064 15.361 14.4857 15.3509C14.465 15.3407 14.4475 15.3256 14.4342 15.3067C14.4213 15.2878 14.413 15.2658 14.4112 15.2432C14.4089 15.2202 14.4112 15.1811 14.4112 15.1811L14.4397 14.8127C14.4572 14.5859 14.4825 14.3448 14.6384 14.1797C14.7944 14.015 15.0359 13.987 15.2622 13.9791L17.0019 13.9161C16.869 13.3991 15.2134 13.2965 14.9204 13.2514C14.6274 13.2068 14.6656 13.1714 14.6564 13.0499C14.6467 12.928 14.8164 12.2495 14.8404 12.0444C14.844 12.014 14.8532 11.9892 14.8666 11.9699C14.9788 11.8038 15.2521 11.9013 15.4365 11.8236C15.6472 11.7348 15.9053 11.5568 15.9628 11.2104C15.9922 11.0366 15.9729 10.8581 15.9057 10.6952C15.839 10.5319 15.7277 10.3912 15.5846 10.2881L17.6661 7.52905C17.8133 7.32895 17.852 7.27927 17.6997 7.14311V7.14265Z" fill="white"/>
</g>
</g>
<defs>
<clipPath id="clip0_866_2286">
<rect width="23" height="23" fill="white"/>
</clipPath>
</defs>
</svg>
