<svg width="152" height="55" viewBox="0 0 152 55" fill="none" xmlns="http://www.w3.org/2000/svg">
<g clip-path="url(#clip0_455_569)">
<path d="M62.8721 18.4167V33.9487C62.8721 35.0058 62.0096 35.8683 60.9525 35.8683H60.1641V18.4167H62.8721ZM73.6959 20.9245H60.3682V18.4167H73.6959V20.9245ZM69.5479 28.5924H60.3122V26.1406H69.5479V28.5924ZM77.0737 27.1524L71.198 18.4167H73.4158C74.0678 18.4167 74.6287 18.7115 74.998 19.249L76.842 21.9325C77.2139 22.4684 77.5499 22.9964 77.85 23.5085C78.1539 24.0206 78.4577 24.5486 78.7537 25.0925L82.5222 19.2906C82.887 18.7293 83.4626 18.4167 84.1319 18.4167H86.2337L80.4616 27.1323L86.2817 35.8683H84.0756C83.4259 35.8683 82.8673 35.5758 82.4973 35.0417L80.7459 32.5125C80.3898 31.9765 80.0497 31.4323 79.7258 30.8926C79.4056 30.3483 79.0817 29.7965 78.762 29.2326L74.8645 35.021C74.4968 35.5671 73.9306 35.8683 73.2722 35.8683H71.1179L77.0737 27.1524ZM96.9234 35.8683H94.2153V18.4167H100.831C102.755 18.4167 104.259 18.8884 105.339 19.8288C106.419 20.7725 106.959 22.0806 106.959 23.7565C106.959 24.9485 106.679 25.9565 106.119 26.7846C105.559 27.6123 104.751 28.2205 103.695 28.6165L107.115 35.8683H105.361C104.596 35.8683 103.942 35.4507 103.62 34.7571L101.019 29.1563H96.9234V35.8683ZM96.9234 20.8405V26.7604H100.835C101.871 26.7604 102.675 26.4966 103.251 25.9645C103.823 25.4365 104.111 24.7044 104.111 23.7765C104.111 22.8244 103.823 22.0965 103.243 21.5965C102.663 21.0926 101.859 20.8405 100.831 20.8405H96.9234ZM113.121 36.1684C111.961 36.1684 110.937 35.9084 110.045 35.3804C109.153 34.8524 108.457 34.1245 107.953 33.1924C107.445 32.2604 107.193 31.1844 107.193 29.9685C107.193 28.7405 107.441 27.6603 107.933 26.7245C108.425 25.7883 109.109 25.0566 109.985 24.5286C110.861 23.9965 111.873 23.7326 113.017 23.7326C114.173 23.7326 115.173 23.9764 116.017 24.4644C116.865 24.9565 117.521 25.6405 117.985 26.5246C118.453 27.4086 118.685 28.4484 118.685 29.6525V30.5165L108.569 30.5445L108.617 28.8524H116.105C116.105 27.9483 115.829 27.2283 115.273 26.6886C114.717 26.1444 113.969 25.8764 113.033 25.8764C112.313 25.8764 111.701 26.0283 111.197 26.3405C110.697 26.6485 110.313 27.1006 110.049 27.7004C109.785 28.3044 109.653 29.0323 109.653 29.8925C109.653 31.2403 109.949 32.2645 110.549 32.9683C111.145 33.6762 112.017 34.0285 113.161 34.0285C114.005 34.0285 114.693 33.8644 115.233 33.5364C115.773 33.2125 116.129 32.7445 116.297 32.1323H118.713C118.449 33.3965 117.825 34.3883 116.841 35.1003C115.857 35.8124 114.617 36.1684 113.121 36.1684ZM122.79 35.8683H120.207V24.0766H122.559L122.886 26.2124L122.575 25.9645C122.815 25.3484 123.255 24.8204 123.903 24.3846C124.547 23.9485 125.339 23.7326 126.283 23.7326C127.335 23.7326 128.194 24.0085 128.863 24.5604C129.535 25.1125 129.987 25.8446 130.223 26.7525H129.77C129.942 25.8446 130.391 25.1125 131.114 24.5604C131.842 24.0085 132.726 23.7326 133.77 23.7326C135.167 23.7326 136.246 24.1284 137.014 24.9205C137.782 25.7165 138.166 26.7925 138.166 28.1566V35.8683H135.606V28.8044C135.606 27.9204 135.382 27.2446 134.939 26.7725C134.49 26.3046 133.894 26.0684 133.143 26.0684C132.63 26.0684 132.178 26.1806 131.779 26.4085C131.379 26.6365 131.062 26.9725 130.831 27.4124C130.599 27.8523 130.483 28.3924 130.483 29.0323V35.8683H127.911V28.7923C127.911 27.9124 127.691 27.2404 127.251 26.7763C126.807 26.3125 126.215 26.0805 125.463 26.0805C124.95 26.0805 124.495 26.1965 124.091 26.4206C123.687 26.6485 123.371 26.9845 123.139 27.4203C122.906 27.8606 122.79 28.3924 122.79 29.0244V35.8683ZM140.256 35.8683V24.0766H142.84V35.8683H140.256ZM141.536 21.4925C141.08 21.4925 140.692 21.3326 140.376 21.0125C140.056 20.6924 139.896 20.3125 139.896 19.8647C139.896 19.4085 140.056 19.0245 140.376 18.7047C140.692 18.3888 141.08 18.2285 141.536 18.2285C141.98 18.2285 142.364 18.3888 142.68 18.7047C143 19.0245 143.16 19.4085 143.16 19.8647C143.16 20.3125 143 20.6924 142.68 21.0125C142.364 21.3326 141.98 21.4925 141.536 21.4925ZM143.854 24.0766H151.038V26.2404H143.854V24.0766ZM148.738 35.8683H146.154V20.3847H146.818C147.876 20.3847 148.738 21.2472 148.738 22.3044V35.8683Z" fill="black"/>
<path fill-rule="evenodd" clip-rule="evenodd" d="M0 18.2222L45.6 0V14.3014C45.6 15.826 44.5773 17.1114 43.0908 17.4535L0 27.3781V18.2222Z" fill="#2E5EAA"/>
<path fill-rule="evenodd" clip-rule="evenodd" d="M0 27.5575L42.1172 24.3241C43.0492 24.2527 43.878 24.5411 44.5633 25.1764C45.2489 25.811 45.6 26.6153 45.6 27.5496V40.8426L0 36.7134V27.5575Z" fill="#2E5EAA"/>
<path fill-rule="evenodd" clip-rule="evenodd" d="M16.427 41.112L0 37.5215V54.3971L13.9963 50.8024C15.4462 50.4301 16.427 49.1658 16.427 47.6691V41.112Z" fill="#2E5EAA"/>
</g>
<defs>
<clipPath id="clip0_455_569">
<rect width="151.038" height="54.3969" fill="white"/>
</clipPath>
</defs>
</svg>
