<svg width="19" height="15" viewBox="0 0 19 15" fill="none" xmlns="http://www.w3.org/2000/svg">
<mask id="mask0_844_3473" style="mask-type:luminance" maskUnits="userSpaceOnUse" x="0" y="0" width="19" height="15">
<rect x="0.333313" y="0.5" width="18.6667" height="14" fill="white"/>
</mask>
<g mask="url(#mask0_844_3473)">
<path fill-rule="evenodd" clip-rule="evenodd" d="M0.333313 0.5V5.16667H19V0.5H0.333313Z" fill="#262626"/>
<path fill-rule="evenodd" clip-rule="evenodd" d="M0.333313 9.8335V14.5002H19V9.8335H0.333313Z" fill="#4D8B1D"/>
<path d="M19.5833 4.5835V10.4165H-0.249695V4.5835H19.5833Z" fill="#E31C1C" stroke="#F5FBFF" stroke-width="1.16667"/>
</g>
<path d="M11.4281 2.79206C11.5391 2.56445 11.8375 2.3159 12.3234 2.0464C12.3401 2.03714 12.3603 2.03661 12.3775 2.04498C12.4065 2.05915 12.4186 2.09417 12.4042 2.12314L7.36933 12.4463L7.10718 12.3184L11.5454 3.21865C11.3444 3.18591 11.3053 3.04372 11.4281 2.79206Z" fill="white"/>
<path d="M7.89988 2.79206C8.02262 3.04372 7.9835 3.18591 7.78252 3.21865L12.2208 12.3184L11.9586 12.4463L6.9237 2.12314C6.90938 2.09417 6.92144 2.05915 6.95048 2.04498C6.96764 2.03661 6.98781 2.03714 7.0045 2.0464C7.49041 2.3159 7.78887 2.56445 7.89988 2.79206Z" fill="white"/>
<path fill-rule="evenodd" clip-rule="evenodd" d="M9.66664 12.1668C10.2481 12.1668 12.5833 10.0775 12.5833 7.50016C12.5833 4.92283 10.2481 2.8335 9.66664 2.8335C9.08522 2.8335 6.74997 4.92283 6.74997 7.50016C6.74997 10.0775 9.08522 12.1668 9.66664 12.1668Z" fill="#E31C1C"/>
<mask id="mask1_844_3473" style="mask-type:luminance" maskUnits="userSpaceOnUse" x="6" y="2" width="7" height="11">
<path fill-rule="evenodd" clip-rule="evenodd" d="M9.66664 12.1668C10.2481 12.1668 12.5833 10.0775 12.5833 7.50016C12.5833 4.92283 10.2481 2.8335 9.66664 2.8335C9.08522 2.8335 6.74997 4.92283 6.74997 7.50016C6.74997 10.0775 9.08522 12.1668 9.66664 12.1668Z" fill="white"/>
</mask>
<g mask="url(#mask1_844_3473)">
<path d="M4.12496 11.5837C6.38012 11.5837 8.20829 9.75549 8.20829 7.50033C8.20829 5.24516 6.38012 3.41699 4.12496 3.41699C1.8698 3.41699 0.041626 5.24516 0.041626 7.50033C0.041626 9.75549 1.8698 11.5837 4.12496 11.5837Z" fill="#262626"/>
<path d="M15.2083 11.5837C17.4635 11.5837 19.2916 9.75549 19.2916 7.50033C19.2916 5.24516 17.4635 3.41699 15.2083 3.41699C12.9531 3.41699 11.125 5.24516 11.125 7.50033C11.125 9.75549 12.9531 11.5837 15.2083 11.5837Z" fill="#262626"/>
<path d="M9.78351 8.12549C10.0495 8.31576 10.2503 9.13879 10.2503 10.1255C10.2503 11.1125 10.0496 11.9357 9.78351 12.1255V8.12549ZM9.49152 12.0728C9.25504 11.8124 9.08335 11.0391 9.08331 10.1255C9.08333 9.21088 9.25467 8.43608 9.49152 8.17627V12.0728ZM9.78351 2.87549C10.0495 3.06576 10.2503 3.88879 10.2503 4.87549C10.2503 5.86247 10.0496 6.68573 9.78351 6.87549V2.87549ZM9.49152 6.82275C9.25504 6.56238 9.08335 5.78914 9.08331 4.87549C9.08333 3.96088 9.25467 3.18608 9.49152 2.92627V6.82275Z" fill="#F5FBFF"/>
<path d="M9.66665 6.91683C9.98881 6.91683 10.25 7.178 10.25 7.50016C10.25 7.82233 9.98881 8.0835 9.66665 8.0835C9.34448 8.0835 9.08331 7.82233 9.08331 7.50016C9.08331 7.178 9.34448 6.91683 9.66665 6.91683Z" fill="#F5FBFF"/>
</g>
</svg>
