<svg width="134" height="174" viewBox="0 0 134 174" fill="none" xmlns="http://www.w3.org/2000/svg">
<g opacity="0.5">
<path d="M-86 8C-83.7909 8 -82 6.20914 -82 4C-82 1.79086 -83.7909 0 -86 0C-88.2091 0 -90 1.79086 -90 4C-90 6.20914 -88.2091 8 -86 8Z" fill="#F18F01" fill-opacity="0.5"/>
<path d="M-62 8C-59.7909 8 -58 6.20914 -58 4C-58 1.79086 -59.7909 0 -62 0C-64.2091 0 -66 1.79086 -66 4C-66 6.20914 -64.2091 8 -62 8Z" fill="#F18F01" fill-opacity="0.5"/>
<path d="M-34 4C-34 6.20914 -35.7909 8 -38 8C-40.2091 8 -42 6.20914 -42 4C-42 1.79086 -40.2091 0 -38 0C-35.7909 0 -34 1.79086 -34 4Z" fill="#F18F01" fill-opacity="0.5"/>
<path d="M-14 8C-11.7909 8 -10 6.20914 -10 4C-10 1.79086 -11.7909 0 -14 0C-16.2091 0 -18 1.79086 -18 4C-18 6.20914 -16.2091 8 -14 8Z" fill="#F18F01" fill-opacity="0.5"/>
<path d="M14 4C14 6.20914 12.2091 8 10 8C7.79086 8 6 6.20914 6 4C6 1.79086 7.79086 0 10 0C12.2091 0 14 1.79086 14 4Z" fill="#F18F01" fill-opacity="0.5"/>
<path d="M34 8C36.2091 8 38 6.20914 38 4C38 1.79086 36.2091 0 34 0C31.7909 0 30 1.79086 30 4C30 6.20914 31.7909 8 34 8Z" fill="#F18F01" fill-opacity="0.5"/>
<path d="M62 4C62 6.20914 60.2091 8 58 8C55.7909 8 54 6.20914 54 4C54 1.79086 55.7909 0 58 0C60.2091 0 62 1.79086 62 4Z" fill="#F18F01" fill-opacity="0.5"/>
<path d="M82 8C84.2091 8 86 6.20914 86 4C86 1.79086 84.2091 0 82 0C79.7909 0 78 1.79086 78 4C78 6.20914 79.7909 8 82 8Z" fill="#F18F01" fill-opacity="0.5"/>
<path d="M110 4C110 6.20914 108.209 8 106 8C103.791 8 102 6.20914 102 4C102 1.79086 103.791 0 106 0C108.209 0 110 1.79086 110 4Z" fill="#F18F01" fill-opacity="0.5"/>
<path d="M130 8C132.209 8 134 6.20914 134 4C134 1.79086 132.209 0 130 0C127.791 0 126 1.79086 126 4C126 6.20914 127.791 8 130 8Z" fill="#F18F01" fill-opacity="0.5"/>
<path d="M-82 28C-82 30.2091 -83.7909 32 -86 32C-88.2091 32 -90 30.2091 -90 28C-90 25.7909 -88.2091 24 -86 24C-83.7909 24 -82 25.7909 -82 28Z" fill="#F18F01" fill-opacity="0.5"/>
<path d="M-62 32C-59.7909 32 -58 30.2091 -58 28C-58 25.7909 -59.7909 24 -62 24C-64.2091 24 -66 25.7909 -66 28C-66 30.2091 -64.2091 32 -62 32Z" fill="#F18F01" fill-opacity="0.5"/>
<path d="M-34 28C-34 30.2091 -35.7909 32 -38 32C-40.2091 32 -42 30.2091 -42 28C-42 25.7909 -40.2091 24 -38 24C-35.7909 24 -34 25.7909 -34 28Z" fill="#F18F01" fill-opacity="0.5"/>
<path d="M-14 32C-11.7909 32 -10 30.2091 -10 28C-10 25.7909 -11.7909 24 -14 24C-16.2091 24 -18 25.7909 -18 28C-18 30.2091 -16.2091 32 -14 32Z" fill="#F18F01" fill-opacity="0.5"/>
<path d="M14 28C14 30.2091 12.2091 32 10 32C7.79086 32 6 30.2091 6 28C6 25.7909 7.79086 24 10 24C12.2091 24 14 25.7909 14 28Z" fill="#F18F01" fill-opacity="0.5"/>
<path d="M34 32C36.2091 32 38 30.2091 38 28C38 25.7909 36.2091 24 34 24C31.7909 24 30 25.7909 30 28C30 30.2091 31.7909 32 34 32Z" fill="#F18F01" fill-opacity="0.5"/>
<path d="M62 28C62 30.2091 60.2091 32 58 32C55.7909 32 54 30.2091 54 28C54 25.7909 55.7909 24 58 24C60.2091 24 62 25.7909 62 28Z" fill="#F18F01" fill-opacity="0.5"/>
<path d="M82 32C84.2091 32 86 30.2091 86 28C86 25.7909 84.2091 24 82 24C79.7909 24 78 25.7909 78 28C78 30.2091 79.7909 32 82 32Z" fill="#F18F01" fill-opacity="0.5"/>
<path d="M110 28C110 30.2091 108.209 32 106 32C103.791 32 102 30.2091 102 28C102 25.7909 103.791 24 106 24C108.209 24 110 25.7909 110 28Z" fill="#F18F01" fill-opacity="0.5"/>
<path d="M130 32C132.209 32 134 30.2091 134 28C134 25.7909 132.209 24 130 24C127.791 24 126 25.7909 126 28C126 30.2091 127.791 32 130 32Z" fill="#F18F01" fill-opacity="0.5"/>
<path d="M-82 52C-82 54.2091 -83.7909 56 -86 56C-88.2091 56 -90 54.2091 -90 52C-90 49.7909 -88.2091 48 -86 48C-83.7909 48 -82 49.7909 -82 52Z" fill="#F18F01" fill-opacity="0.5"/>
<path d="M-62 56C-59.7909 56 -58 54.2091 -58 52C-58 49.7909 -59.7909 48 -62 48C-64.2091 48 -66 49.7909 -66 52C-66 54.2091 -64.2091 56 -62 56Z" fill="#F18F01" fill-opacity="0.5"/>
<path d="M-34 52C-34 54.2091 -35.7909 56 -38 56C-40.2091 56 -42 54.2091 -42 52C-42 49.7909 -40.2091 48 -38 48C-35.7909 48 -34 49.7909 -34 52Z" fill="#F18F01" fill-opacity="0.5"/>
<path d="M-14 56C-11.7909 56 -10 54.2091 -10 52C-10 49.7909 -11.7909 48 -14 48C-16.2091 48 -18 49.7909 -18 52C-18 54.2091 -16.2091 56 -14 56Z" fill="#F18F01" fill-opacity="0.5"/>
<path d="M14 52C14 54.2091 12.2091 56 10 56C7.79086 56 6 54.2091 6 52C6 49.7909 7.79086 48 10 48C12.2091 48 14 49.7909 14 52Z" fill="#F18F01" fill-opacity="0.5"/>
<path d="M34 56C36.2091 56 38 54.2091 38 52C38 49.7909 36.2091 48 34 48C31.7909 48 30 49.7909 30 52C30 54.2091 31.7909 56 34 56Z" fill="#F18F01" fill-opacity="0.5"/>
<path d="M62 52C62 54.2091 60.2091 56 58 56C55.7909 56 54 54.2091 54 52C54 49.7909 55.7909 48 58 48C60.2091 48 62 49.7909 62 52Z" fill="#F18F01" fill-opacity="0.5"/>
<path d="M82 56C84.2091 56 86 54.2091 86 52C86 49.7909 84.2091 48 82 48C79.7909 48 78 49.7909 78 52C78 54.2091 79.7909 56 82 56Z" fill="#F18F01" fill-opacity="0.5"/>
<path d="M110 52C110 54.2091 108.209 56 106 56C103.791 56 102 54.2091 102 52C102 49.7909 103.791 48 106 48C108.209 48 110 49.7909 110 52Z" fill="#F18F01" fill-opacity="0.5"/>
<path d="M130 56C132.209 56 134 54.2091 134 52C134 49.7909 132.209 48 130 48C127.791 48 126 49.7909 126 52C126 54.2091 127.791 56 130 56Z" fill="#F18F01" fill-opacity="0.5"/>
<path d="M-82 76C-82 78.2091 -83.7909 80 -86 80C-88.2091 80 -90 78.2091 -90 76C-90 73.7909 -88.2091 72 -86 72C-83.7909 72 -82 73.7909 -82 76Z" fill="#F18F01" fill-opacity="0.5"/>
<path d="M-62 80C-59.7909 80 -58 78.2091 -58 76C-58 73.7909 -59.7909 72 -62 72C-64.2091 72 -66 73.7909 -66 76C-66 78.2091 -64.2091 80 -62 80Z" fill="#F18F01" fill-opacity="0.5"/>
<path d="M-34 76C-34 78.2091 -35.7909 80 -38 80C-40.2091 80 -42 78.2091 -42 76C-42 73.7909 -40.2091 72 -38 72C-35.7909 72 -34 73.7909 -34 76Z" fill="#F18F01" fill-opacity="0.5"/>
<path d="M-14 80C-11.7909 80 -10 78.2091 -10 76C-10 73.7909 -11.7909 72 -14 72C-16.2091 72 -18 73.7909 -18 76C-18 78.2091 -16.2091 80 -14 80Z" fill="#F18F01" fill-opacity="0.5"/>
<path d="M14 76C14 78.2091 12.2091 80 10 80C7.79086 80 6 78.2091 6 76C6 73.7909 7.79086 72 10 72C12.2091 72 14 73.7909 14 76Z" fill="#F18F01" fill-opacity="0.5"/>
<path d="M34 80C36.2091 80 38 78.2091 38 76C38 73.7909 36.2091 72 34 72C31.7909 72 30 73.7909 30 76C30 78.2091 31.7909 80 34 80Z" fill="#F18F01" fill-opacity="0.5"/>
<path d="M62 76C62 78.2091 60.2091 80 58 80C55.7909 80 54 78.2091 54 76C54 73.7909 55.7909 72 58 72C60.2091 72 62 73.7909 62 76Z" fill="#F18F01" fill-opacity="0.5"/>
<path d="M82 80C84.2091 80 86 78.2091 86 76C86 73.7909 84.2091 72 82 72C79.7909 72 78 73.7909 78 76C78 78.2091 79.7909 80 82 80Z" fill="#F18F01" fill-opacity="0.5"/>
<path d="M110 76C110 78.2091 108.209 80 106 80C103.791 80 102 78.2091 102 76C102 73.7909 103.791 72 106 72C108.209 72 110 73.7909 110 76Z" fill="#F18F01" fill-opacity="0.5"/>
<path d="M130 80C132.209 80 134 78.2091 134 76C134 73.7909 132.209 72 130 72C127.791 72 126 73.7909 126 76C126 78.2091 127.791 80 130 80Z" fill="#F18F01" fill-opacity="0.5"/>
<path d="M-82 100C-82 102.209 -83.7909 104 -86 104C-88.2091 104 -90 102.209 -90 100C-90 97.7909 -88.2091 96 -86 96C-83.7909 96 -82 97.7909 -82 100Z" fill="#F18F01" fill-opacity="0.5"/>
<path d="M-62 104C-59.7909 104 -58 102.209 -58 100C-58 97.7909 -59.7909 96 -62 96C-64.2091 96 -66 97.7909 -66 100C-66 102.209 -64.2091 104 -62 104Z" fill="#F18F01" fill-opacity="0.5"/>
<path d="M-34 100C-34 102.209 -35.7909 104 -38 104C-40.2091 104 -42 102.209 -42 100C-42 97.7909 -40.2091 96 -38 96C-35.7909 96 -34 97.7909 -34 100Z" fill="#F18F01" fill-opacity="0.5"/>
<path d="M-14 104C-11.7909 104 -10 102.209 -10 100C-10 97.7909 -11.7909 96 -14 96C-16.2091 96 -18 97.7909 -18 100C-18 102.209 -16.2091 104 -14 104Z" fill="#F18F01" fill-opacity="0.5"/>
<path d="M14 100C14 102.209 12.2091 104 10 104C7.79086 104 6 102.209 6 100C6 97.7909 7.79086 96 10 96C12.2091 96 14 97.7909 14 100Z" fill="#F18F01" fill-opacity="0.5"/>
<path d="M34 104C36.2091 104 38 102.209 38 100C38 97.7909 36.2091 96 34 96C31.7909 96 30 97.7909 30 100C30 102.209 31.7909 104 34 104Z" fill="#F18F01" fill-opacity="0.5"/>
<path d="M62 100C62 102.209 60.2091 104 58 104C55.7909 104 54 102.209 54 100C54 97.7909 55.7909 96 58 96C60.2091 96 62 97.7909 62 100Z" fill="#F18F01" fill-opacity="0.5"/>
<path d="M82 104C84.2091 104 86 102.209 86 100C86 97.7909 84.2091 96 82 96C79.7909 96 78 97.7909 78 100C78 102.209 79.7909 104 82 104Z" fill="#F18F01" fill-opacity="0.5"/>
<path d="M110 100C110 102.209 108.209 104 106 104C103.791 104 102 102.209 102 100C102 97.7909 103.791 96 106 96C108.209 96 110 97.7909 110 100Z" fill="#F18F01" fill-opacity="0.5"/>
<path d="M130 104C132.209 104 134 102.209 134 100C134 97.7909 132.209 96 130 96C127.791 96 126 97.7909 126 100C126 102.209 127.791 104 130 104Z" fill="#F18F01" fill-opacity="0.5"/>
<path d="M-82 124C-82 126.209 -83.7909 128 -86 128C-88.2091 128 -90 126.209 -90 124C-90 121.791 -88.2091 120 -86 120C-83.7909 120 -82 121.791 -82 124Z" fill="#F18F01" fill-opacity="0.5"/>
<path d="M-62 128C-59.7909 128 -58 126.209 -58 124C-58 121.791 -59.7909 120 -62 120C-64.2091 120 -66 121.791 -66 124C-66 126.209 -64.2091 128 -62 128Z" fill="#F18F01" fill-opacity="0.5"/>
<path d="M-34 124C-34 126.209 -35.7909 128 -38 128C-40.2091 128 -42 126.209 -42 124C-42 121.791 -40.2091 120 -38 120C-35.7909 120 -34 121.791 -34 124Z" fill="#F18F01" fill-opacity="0.5"/>
<path d="M-14 128C-11.7909 128 -10 126.209 -10 124C-10 121.791 -11.7909 120 -14 120C-16.2091 120 -18 121.791 -18 124C-18 126.209 -16.2091 128 -14 128Z" fill="#F18F01" fill-opacity="0.5"/>
<path d="M14 124C14 126.209 12.2091 128 10 128C7.79086 128 6 126.209 6 124C6 121.791 7.79086 120 10 120C12.2091 120 14 121.791 14 124Z" fill="#F18F01" fill-opacity="0.5"/>
<path d="M34 128C36.2091 128 38 126.209 38 124C38 121.791 36.2091 120 34 120C31.7909 120 30 121.791 30 124C30 126.209 31.7909 128 34 128Z" fill="#F18F01" fill-opacity="0.5"/>
<path d="M62 124C62 126.209 60.2091 128 58 128C55.7909 128 54 126.209 54 124C54 121.791 55.7909 120 58 120C60.2091 120 62 121.791 62 124Z" fill="#F18F01" fill-opacity="0.5"/>
<path d="M82 128C84.2091 128 86 126.209 86 124C86 121.791 84.2091 120 82 120C79.7909 120 78 121.791 78 124C78 126.209 79.7909 128 82 128Z" fill="#F18F01" fill-opacity="0.5"/>
<path d="M110 124C110 126.209 108.209 128 106 128C103.791 128 102 126.209 102 124C102 121.791 103.791 120 106 120C108.209 120 110 121.791 110 124Z" fill="#F18F01" fill-opacity="0.5"/>
<path d="M130 128C132.209 128 134 126.209 134 124C134 121.791 132.209 120 130 120C127.791 120 126 121.791 126 124C126 126.209 127.791 128 130 128Z" fill="#F18F01" fill-opacity="0.5"/>
<path d="M-82 148C-82 150.209 -83.7909 152 -86 152C-88.2091 152 -90 150.209 -90 148C-90 145.791 -88.2091 144 -86 144C-83.7909 144 -82 145.791 -82 148Z" fill="#F18F01" fill-opacity="0.5"/>
<path d="M-62 152C-59.7909 152 -58 150.209 -58 148C-58 145.791 -59.7909 144 -62 144C-64.2091 144 -66 145.791 -66 148C-66 150.209 -64.2091 152 -62 152Z" fill="#F18F01" fill-opacity="0.5"/>
<path d="M-34 148C-34 150.209 -35.7909 152 -38 152C-40.2091 152 -42 150.209 -42 148C-42 145.791 -40.2091 144 -38 144C-35.7909 144 -34 145.791 -34 148Z" fill="#F18F01" fill-opacity="0.5"/>
<path d="M-14 152C-11.7909 152 -10 150.209 -10 148C-10 145.791 -11.7909 144 -14 144C-16.2091 144 -18 145.791 -18 148C-18 150.209 -16.2091 152 -14 152Z" fill="#F18F01" fill-opacity="0.5"/>
<path d="M14 148C14 150.209 12.2091 152 10 152C7.79086 152 6 150.209 6 148C6 145.791 7.79086 144 10 144C12.2091 144 14 145.791 14 148Z" fill="#F18F01" fill-opacity="0.5"/>
<path d="M34 152C36.2091 152 38 150.209 38 148C38 145.791 36.2091 144 34 144C31.7909 144 30 145.791 30 148C30 150.209 31.7909 152 34 152Z" fill="#F18F01" fill-opacity="0.5"/>
<path d="M62 148C62 150.209 60.2091 152 58 152C55.7909 152 54 150.209 54 148C54 145.791 55.7909 144 58 144C60.2091 144 62 145.791 62 148Z" fill="#F18F01" fill-opacity="0.5"/>
<path d="M82 152C84.2091 152 86 150.209 86 148C86 145.791 84.2091 144 82 144C79.7909 144 78 145.791 78 148C78 150.209 79.7909 152 82 152Z" fill="#F18F01" fill-opacity="0.5"/>
<path d="M110 148C110 150.209 108.209 152 106 152C103.791 152 102 150.209 102 148C102 145.791 103.791 144 106 144C108.209 144 110 145.791 110 148Z" fill="#F18F01" fill-opacity="0.5"/>
<path d="M130 152C132.209 152 134 150.209 134 148C134 145.791 132.209 144 130 144C127.791 144 126 145.791 126 148C126 150.209 127.791 152 130 152Z" fill="#F18F01" fill-opacity="0.5"/>
<path d="M-82 172C-82 174.209 -83.7909 176 -86 176C-88.2091 176 -90 174.209 -90 172C-90 169.791 -88.2091 168 -86 168C-83.7909 168 -82 169.791 -82 172Z" fill="#F18F01" fill-opacity="0.5"/>
<path d="M-62 176C-59.7909 176 -58 174.209 -58 172C-58 169.791 -59.7909 168 -62 168C-64.2091 168 -66 169.791 -66 172C-66 174.209 -64.2091 176 -62 176Z" fill="#F18F01" fill-opacity="0.5"/>
<path d="M-34 172C-34 174.209 -35.7909 176 -38 176C-40.2091 176 -42 174.209 -42 172C-42 169.791 -40.2091 168 -38 168C-35.7909 168 -34 169.791 -34 172Z" fill="#F18F01" fill-opacity="0.5"/>
<path d="M-14 176C-11.7909 176 -10 174.209 -10 172C-10 169.791 -11.7909 168 -14 168C-16.2091 168 -18 169.791 -18 172C-18 174.209 -16.2091 176 -14 176Z" fill="#F18F01" fill-opacity="0.5"/>
<path d="M14 172C14 174.209 12.2091 176 10 176C7.79086 176 6 174.209 6 172C6 169.791 7.79086 168 10 168C12.2091 168 14 169.791 14 172Z" fill="#F18F01" fill-opacity="0.5"/>
<path d="M34 176C36.2091 176 38 174.209 38 172C38 169.791 36.2091 168 34 168C31.7909 168 30 169.791 30 172C30 174.209 31.7909 176 34 176Z" fill="#F18F01" fill-opacity="0.5"/>
<path d="M62 172C62 174.209 60.2091 176 58 176C55.7909 176 54 174.209 54 172C54 169.791 55.7909 168 58 168C60.2091 168 62 169.791 62 172Z" fill="#F18F01" fill-opacity="0.5"/>
<path d="M82 176C84.2091 176 86 174.209 86 172C86 169.791 84.2091 168 82 168C79.7909 168 78 169.791 78 172C78 174.209 79.7909 176 82 176Z" fill="#F18F01" fill-opacity="0.5"/>
<path d="M110 172C110 174.209 108.209 176 106 176C103.791 176 102 174.209 102 172C102 169.791 103.791 168 106 168C108.209 168 110 169.791 110 172Z" fill="#F18F01" fill-opacity="0.5"/>
<path d="M130 176C132.209 176 134 174.209 134 172C134 169.791 132.209 168 130 168C127.791 168 126 169.791 126 172C126 174.209 127.791 176 130 176Z" fill="#F18F01" fill-opacity="0.5"/>
<path d="M-82 196C-82 198.209 -83.7909 200 -86 200C-88.2091 200 -90 198.209 -90 196C-90 193.791 -88.2091 192 -86 192C-83.7909 192 -82 193.791 -82 196Z" fill="#F18F01" fill-opacity="0.5"/>
<path d="M-62 200C-59.7909 200 -58 198.209 -58 196C-58 193.791 -59.7909 192 -62 192C-64.2091 192 -66 193.791 -66 196C-66 198.209 -64.2091 200 -62 200Z" fill="#F18F01" fill-opacity="0.5"/>
<path d="M-34 196C-34 198.209 -35.7909 200 -38 200C-40.2091 200 -42 198.209 -42 196C-42 193.791 -40.2091 192 -38 192C-35.7909 192 -34 193.791 -34 196Z" fill="#F18F01" fill-opacity="0.5"/>
<path d="M-14 200C-11.7909 200 -10 198.209 -10 196C-10 193.791 -11.7909 192 -14 192C-16.2091 192 -18 193.791 -18 196C-18 198.209 -16.2091 200 -14 200Z" fill="#F18F01" fill-opacity="0.5"/>
<path d="M14 196C14 198.209 12.2091 200 10 200C7.79086 200 6 198.209 6 196C6 193.791 7.79086 192 10 192C12.2091 192 14 193.791 14 196Z" fill="#F18F01" fill-opacity="0.5"/>
<path d="M34 200C36.2091 200 38 198.209 38 196C38 193.791 36.2091 192 34 192C31.7909 192 30 193.791 30 196C30 198.209 31.7909 200 34 200Z" fill="#F18F01" fill-opacity="0.5"/>
<path d="M62 196C62 198.209 60.2091 200 58 200C55.7909 200 54 198.209 54 196C54 193.791 55.7909 192 58 192C60.2091 192 62 193.791 62 196Z" fill="#F18F01" fill-opacity="0.5"/>
<path d="M82 200C84.2091 200 86 198.209 86 196C86 193.791 84.2091 192 82 192C79.7909 192 78 193.791 78 196C78 198.209 79.7909 200 82 200Z" fill="#F18F01" fill-opacity="0.5"/>
<path d="M110 196C110 198.209 108.209 200 106 200C103.791 200 102 198.209 102 196C102 193.791 103.791 192 106 192C108.209 192 110 193.791 110 196Z" fill="#F18F01" fill-opacity="0.5"/>
<path d="M130 200C132.209 200 134 198.209 134 196C134 193.791 132.209 192 130 192C127.791 192 126 193.791 126 196C126 198.209 127.791 200 130 200Z" fill="#F18F01" fill-opacity="0.5"/>
<path d="M-82 220C-82 222.209 -83.7909 224 -86 224C-88.2091 224 -90 222.209 -90 220C-90 217.791 -88.2091 216 -86 216C-83.7909 216 -82 217.791 -82 220Z" fill="#F18F01" fill-opacity="0.5"/>
<path d="M-62 224C-59.7909 224 -58 222.209 -58 220C-58 217.791 -59.7909 216 -62 216C-64.2091 216 -66 217.791 -66 220C-66 222.209 -64.2091 224 -62 224Z" fill="#F18F01" fill-opacity="0.5"/>
<path d="M-34 220C-34 222.209 -35.7909 224 -38 224C-40.2091 224 -42 222.209 -42 220C-42 217.791 -40.2091 216 -38 216C-35.7909 216 -34 217.791 -34 220Z" fill="#F18F01" fill-opacity="0.5"/>
<path d="M-14 224C-11.7909 224 -10 222.209 -10 220C-10 217.791 -11.7909 216 -14 216C-16.2091 216 -18 217.791 -18 220C-18 222.209 -16.2091 224 -14 224Z" fill="#F18F01" fill-opacity="0.5"/>
<path d="M14 220C14 222.209 12.2091 224 10 224C7.79086 224 6 222.209 6 220C6 217.791 7.79086 216 10 216C12.2091 216 14 217.791 14 220Z" fill="#F18F01" fill-opacity="0.5"/>
<path d="M34 224C36.2091 224 38 222.209 38 220C38 217.791 36.2091 216 34 216C31.7909 216 30 217.791 30 220C30 222.209 31.7909 224 34 224Z" fill="#F18F01" fill-opacity="0.5"/>
<path d="M62 220C62 222.209 60.2091 224 58 224C55.7909 224 54 222.209 54 220C54 217.791 55.7909 216 58 216C60.2091 216 62 217.791 62 220Z" fill="#F18F01" fill-opacity="0.5"/>
<path d="M82 224C84.2091 224 86 222.209 86 220C86 217.791 84.2091 216 82 216C79.7909 216 78 217.791 78 220C78 222.209 79.7909 224 82 224Z" fill="#F18F01" fill-opacity="0.5"/>
<path d="M110 220C110 222.209 108.209 224 106 224C103.791 224 102 222.209 102 220C102 217.791 103.791 216 106 216C108.209 216 110 217.791 110 220Z" fill="#F18F01" fill-opacity="0.5"/>
<path d="M130 224C132.209 224 134 222.209 134 220C134 217.791 132.209 216 130 216C127.791 216 126 217.791 126 220C126 222.209 127.791 224 130 224Z" fill="#F18F01" fill-opacity="0.5"/>
</g>
</svg>
