<svg width="32" height="24" viewBox="0 0 32 24" fill="none" xmlns="http://www.w3.org/2000/svg">
<mask id="mask0_829_960" style="mask-type:luminance" maskUnits="userSpaceOnUse" x="0" y="0" width="32" height="24">
<rect width="32" height="24" fill="white"/>
</mask>
<g mask="url(#mask0_829_960)">
<path fill-rule="evenodd" clip-rule="evenodd" d="M0 0V24H32V0H0Z" fill="#BF2714"/>
<mask id="mask1_829_960" style="mask-type:luminance" maskUnits="userSpaceOnUse" x="0" y="0" width="32" height="24">
<path fill-rule="evenodd" clip-rule="evenodd" d="M0 0V24H32V0H0Z" fill="white"/>
</mask>
<g mask="url(#mask1_829_960)">
<path fill-rule="evenodd" clip-rule="evenodd" d="M0 -2V12H32V-2H0Z" fill="#3D58DB"/>
</g>
<path fill-rule="evenodd" clip-rule="evenodd" d="M0 0V24L18 12L0 0Z" fill="#F7FCFF"/>
<mask id="mask2_829_960" style="mask-type:luminance" maskUnits="userSpaceOnUse" x="0" y="0" width="18" height="24">
<path fill-rule="evenodd" clip-rule="evenodd" d="M0 0V24L18 12L0 0Z" fill="white"/>
</mask>
<g mask="url(#mask2_829_960)">
<path fill-rule="evenodd" clip-rule="evenodd" d="M13.605 10.92L14.8809 11.412L15.64 10.5187L15.6601 11.7135L16.8344 12.0954L15.5984 12.515L15.6799 13.6129L14.8658 12.7718L13.5862 13.0152L14.3417 12.0466L13.605 10.92Z" fill="#FECA00"/>
<path fill-rule="evenodd" clip-rule="evenodd" d="M1.60508 16.92L2.77785 17.4385L3.64007 16.5187L3.55709 17.74L4.83447 18.0954L3.49535 18.5414L3.67992 19.6129L2.74756 18.8473L1.58622 19.0152L2.2386 18.0731L1.60508 16.92Z" fill="#FECA00"/>
<path fill-rule="evenodd" clip-rule="evenodd" d="M1.60508 4.92001L2.90284 5.39823L3.64007 4.51871L3.68208 5.69967L4.83447 6.09541L3.62034 6.50116L3.67992 7.61286L2.87255 6.80699L1.58622 7.01524L2.36359 6.03278L1.60508 4.92001Z" fill="#FECA00"/>
<path fill-rule="evenodd" clip-rule="evenodd" d="M8.12152 14.5327C9.50223 14.5327 10.6215 13.4134 10.6215 12.0327C10.6215 10.652 9.50223 9.53271 8.12152 9.53271C6.74081 9.53271 5.62152 10.652 5.62152 12.0327C5.62152 13.4134 6.74081 14.5327 8.12152 14.5327Z" fill="#FECA00"/>
<path d="M8.26757 13.777C8.36443 13.7933 8.43906 13.8716 8.45189 13.969L8.5514 15.6539C8.57875 15.8625 8.43155 16.0537 8.22293 16.0812C8.20422 16.0837 8.18475 16.0854 8.16589 16.0851C7.95553 16.0812 7.788 15.9071 7.79168 15.6967C7.79201 15.6779 7.79349 15.6588 7.7966 15.6403L8.00999 13.9606C8.03056 13.839 8.14582 13.7566 8.26757 13.777ZM6.6149 13.2199C6.71549 13.1484 6.85568 13.1726 6.92738 13.2731C6.98412 13.3531 6.98224 13.4611 6.92249 13.539L5.82149 14.8786C5.69329 15.0457 5.453 15.078 5.28592 14.9498C5.27102 14.9383 5.25758 14.9251 5.24453 14.9116C5.09825 14.7602 5.10237 14.5192 5.25381 14.3729C5.26739 14.3598 5.28209 14.3477 5.29745 14.3368L6.6149 13.2199ZM7.79662 13.932C7.86267 13.9499 7.89813 14.0116 7.88185 14.0711L7.69134 14.7656C7.66949 14.8455 7.58946 14.8951 7.50818 14.879C7.50299 14.878 7.49782 14.8767 7.4928 14.875C7.42511 14.8523 7.38857 14.7784 7.41128 14.7107L7.64264 14.0201C7.66414 13.9561 7.7305 13.9183 7.79662 13.932ZM8.64008 14.0076C8.71315 13.995 8.77788 14.0351 8.79712 14.0999L9.00474 14.7987C9.02494 14.8671 8.98554 14.9386 8.91717 14.959C8.91192 14.9605 8.90664 14.9619 8.90124 14.9627C8.81954 14.976 8.74176 14.924 8.7226 14.8436L8.5563 14.1418C8.54242 14.0819 8.5802 14.0218 8.64008 14.0076ZM9.57175 13.1859C9.65173 13.129 9.75973 13.1311 9.83768 13.1907L11.1342 14.3191C11.3012 14.4472 11.3324 14.6865 11.2045 14.8536C11.193 14.8686 11.1799 14.8829 11.1663 14.896C11.0148 15.0422 10.7738 15.0382 10.6275 14.8867C10.6145 14.8731 10.6024 14.8584 10.5914 14.8431L9.51954 13.4984C9.44779 13.3978 9.47114 13.2576 9.57175 13.1859ZM7.02682 13.699C7.08775 13.7417 7.10544 13.8161 7.07321 13.8756L6.72594 14.516C6.69194 14.5787 6.61372 14.6023 6.55096 14.5683C6.54611 14.5657 6.54136 14.5628 6.53689 14.5595C6.46969 14.5111 6.45135 14.4186 6.4949 14.3481L6.87352 13.7353C6.90589 13.6829 6.97437 13.6669 7.02682 13.699ZM9.34892 13.6284C9.4082 13.5945 9.47625 13.6133 9.50678 13.6669L9.86347 14.2919C9.90452 14.3639 9.88334 14.4558 9.81452 14.5019C9.81002 14.5049 9.8051 14.5073 9.80027 14.5097C9.73634 14.5415 9.65894 14.5155 9.62714 14.4516L9.30173 13.7994C9.27173 13.7388 9.29234 13.6654 9.34892 13.6284ZM6.31386 13.0031C6.37438 12.973 6.44785 12.9928 6.48488 13.0493C6.51896 13.1086 6.50002 13.1766 6.44644 13.2072L5.82133 13.5648C5.74936 13.6059 5.65751 13.5837 5.61141 13.5149C5.60842 13.5104 5.60601 13.5055 5.6036 13.5006C5.57185 13.4367 5.59781 13.3593 5.66171 13.3275L6.31386 13.0031ZM10.1742 13.04L10.8156 13.3874C10.8781 13.4215 10.9009 13.4996 10.867 13.5623C10.8644 13.5671 10.8614 13.5719 10.8582 13.5763C10.8097 13.6434 10.7181 13.6617 10.6477 13.6184L10.034 13.2397C9.98192 13.2073 9.96573 13.1387 9.99769 13.0864C10.0403 13.0255 10.1147 13.0079 10.1742 13.04ZM5.97147 12.2576C6.0314 12.2437 6.09149 12.2805 6.10567 12.3405C6.11858 12.4137 6.07823 12.4782 6.01344 12.4975L5.31464 12.7051C5.24629 12.7254 5.17469 12.6868 5.15427 12.6185C5.15274 12.6133 5.15137 12.6079 5.15049 12.6026C5.13726 12.5208 5.1892 12.4421 5.26976 12.423L5.97147 12.2576ZM4.47901 11.5375L6.15267 11.7104C6.27432 11.7309 6.35659 11.8462 6.33632 11.9679C6.32008 12.065 6.24174 12.1404 6.14422 12.1532L4.46545 12.2913C4.25666 12.3188 4.06463 12.1716 4.03713 11.9628C4.03471 11.9443 4.03388 11.9255 4.0342 11.9068C4.03787 11.6962 4.21208 11.528 4.42264 11.5316C4.44139 11.532 4.46051 11.5344 4.47901 11.5375ZM11.0652 12.422C11.1449 12.444 11.1938 12.5239 11.1777 12.6051C11.1766 12.6103 11.1754 12.6154 11.1737 12.6204C11.151 12.6881 11.078 12.7246 11.0104 12.702L10.3188 12.4706C10.2549 12.449 10.217 12.3826 10.2307 12.3166C10.2485 12.2506 10.3103 12.2152 10.3698 12.2314L11.0652 12.422ZM11.937 11.5324C12.1456 11.505 12.3367 11.6514 12.3644 11.8599C12.3669 11.8786 12.3686 11.898 12.3682 11.9169C12.3645 12.1274 12.1904 12.2948 11.9799 12.2911C11.961 12.2908 11.942 12.2893 11.9234 12.2862L10.2603 12.1033C10.1384 12.0829 10.0562 11.9676 10.0766 11.8457C10.093 11.749 10.1703 11.6742 10.2677 11.6614L11.937 11.5324ZM5.40257 11.1117L6.09312 11.344C6.15726 11.3655 6.19512 11.4318 6.18123 11.498C6.16331 11.5639 6.10165 11.5985 6.0422 11.5822L5.34767 11.3927C5.26776 11.3708 5.21813 11.2908 5.2342 11.2095C5.23527 11.2041 5.23652 11.1984 5.23828 11.1932C5.26107 11.1256 5.33495 11.089 5.40257 11.1117ZM11.0973 11.1085C11.1658 11.0882 11.2383 11.1277 11.2586 11.1961C11.2601 11.2013 11.2615 11.2067 11.2624 11.2121C11.2756 11.2938 11.2228 11.3716 11.1422 11.3906L10.4414 11.557C10.3814 11.5712 10.3215 11.5333 10.3073 11.4732C10.2945 11.4001 10.3347 11.3354 10.3995 11.3162L11.0973 11.1085ZM5.76516 10.1962L6.37793 10.5749C6.43029 10.6073 6.44659 10.6757 6.4142 10.7282C6.37154 10.7891 6.29716 10.8068 6.23769 10.7746L5.59727 10.4273C5.53449 10.3933 5.51095 10.3141 5.54496 10.2513C5.54747 10.2467 5.55065 10.2425 5.55371 10.2382C5.60218 10.171 5.69467 10.1527 5.76516 10.1962ZM5.11747 8.94489C5.26897 8.79863 5.51091 8.80276 5.6572 8.95424C5.67027 8.96779 5.68237 8.98255 5.6933 8.99788L6.89332 10.3162C6.96465 10.4168 6.94065 10.5561 6.84022 10.6278C6.76016 10.6847 6.65224 10.6827 6.57428 10.6229L5.15055 9.52184C4.98346 9.39365 4.95205 9.1544 5.08024 8.98732C5.09171 8.97239 5.10393 8.95797 5.11747 8.94489ZM10.5915 10.2498C10.6634 10.2088 10.7544 10.2301 10.8005 10.2987C10.8036 10.3033 10.8069 10.3081 10.8093 10.313C10.8411 10.3769 10.8149 10.4543 10.7512 10.4862L10.099 10.8116C10.0384 10.8417 9.96408 10.821 9.92708 10.7643C9.89335 10.7051 9.91207 10.6369 9.96553 10.6065L10.5915 10.2498ZM10.6075 9.04098C10.7357 8.87405 10.975 8.84278 11.1421 8.97067C11.157 8.98216 11.1713 8.9953 11.1844 9.00888C11.3306 9.16038 11.3266 9.40137 11.1751 9.54763C11.1616 9.56073 11.1469 9.57278 11.1315 9.58374L9.79706 10.5937C9.69647 10.6652 9.55718 10.6421 9.48548 10.5416C9.42837 10.4615 9.4305 10.3537 9.49037 10.2756L10.6075 9.04098ZM6.61267 9.30397C6.67652 9.27239 6.75402 9.2983 6.78579 9.36209L7.11016 10.0152C7.14008 10.0757 7.12049 10.1493 7.06394 10.1862C7.00471 10.2202 6.93671 10.2012 6.90608 10.1478L6.54849 9.5217C6.50763 9.44977 6.52958 9.35881 6.59835 9.31276C6.60293 9.30969 6.60773 9.30642 6.61267 9.30397ZM9.86191 9.2463C9.86661 9.24888 9.87163 9.25199 9.87598 9.25512C9.94278 9.30366 9.96045 9.3952 9.91706 9.46553L9.53837 10.0793C9.50583 10.1313 9.43737 10.1478 9.38507 10.1155C9.32424 10.073 9.30666 9.99847 9.33868 9.93903L9.68603 9.29764C9.7201 9.23503 9.79921 9.21233 9.86191 9.2463ZM8.21113 7.80831C8.42149 7.81222 8.58901 7.98627 8.58534 8.19669C8.585 8.21545 8.58351 8.23461 8.58041 8.25313L8.40295 9.85304C8.38255 9.97488 8.2672 10.057 8.14537 10.0367C8.04835 10.0205 7.97285 9.94308 7.96001 9.84556L7.82562 8.2395C7.79815 8.03074 7.94539 7.83869 8.15415 7.81118C8.17286 7.80872 8.19226 7.80798 8.21113 7.80831ZM8.92007 8.93962C8.98748 8.96241 9.02413 9.03543 9.00165 9.10294L8.76925 9.79447C8.7476 9.85838 8.68136 9.89644 8.61527 9.88257C8.54932 9.86467 8.51477 9.803 8.53101 9.74354L8.72062 9.04804C8.74262 8.96834 8.82256 8.91948 8.90371 8.93554C8.90914 8.93662 8.91482 8.93786 8.92007 8.93962ZM7.51072 8.85086C7.59251 8.83762 7.67122 8.89046 7.69027 8.9711L7.85566 9.67185C7.86984 9.73183 7.8328 9.79179 7.77285 9.80604C7.6998 9.81893 7.63521 9.77934 7.61575 9.71478L7.40813 9.01598C7.3878 8.94757 7.4264 8.87501 7.49479 8.85464C7.49999 8.8531 7.50537 8.85174 7.51072 8.85086Z" fill="#FECA00"/>
</g>
</g>
</svg>
