<svg width="23" height="23" viewBox="0 0 23 23" fill="none" xmlns="http://www.w3.org/2000/svg">
<g clip-path="url(#clip0_844_3519)">
<mask id="mask0_844_3519" style="mask-type:luminance" maskUnits="userSpaceOnUse" x="0" y="0" width="23" height="23">
<path d="M23 0H0V23H23V0Z" fill="white"/>
</mask>
<g mask="url(#mask0_844_3519)">
<path d="M11.5 23C17.8512 23 23 17.8513 23 11.5C23 5.14872 17.8512 0 11.5 0C5.14872 0 0 5.14872 0 11.5C0 17.8513 5.14872 23 11.5 23Z" fill="#FEDA3F"/>
<path fill-rule="evenodd" clip-rule="evenodd" d="M17.0126 5.98863C17.1451 6.80927 17.3112 7.62577 17.5099 8.43399C17.4975 8.46297 17.4809 8.48781 17.4685 8.51679C16.7513 8.87743 16.0301 9.23393 15.3129 9.59457C15.0599 8.98921 14.6165 8.59545 13.9867 8.41329C13.6758 8.35947 13.3731 8.33877 13.075 8.35119C13.5433 7.41049 14.0157 6.46933 14.4845 5.53277C15.3299 5.66939 16.1713 5.81889 17.0131 5.98863H17.0126ZM9.4277 5.09761C10.0993 4.65831 10.7622 4.21073 11.4172 3.75073C11.4752 3.74245 11.529 3.75073 11.5828 3.77143C12.2668 4.22729 12.9425 4.69143 13.6137 5.16017C13.2158 6.33317 12.822 7.50617 12.4324 8.68331C12.0759 8.90733 11.7649 9.18471 11.5 9.51223C11.2056 9.17229 10.8822 8.86547 10.5257 8.60051C10.1444 7.46063 9.76717 6.32075 9.38583 5.18087C9.38998 5.14775 9.40654 5.12291 9.42724 5.09807L9.4277 5.09761ZM5.98735 5.98863C6.79144 5.86443 7.57896 5.69837 8.34992 5.49137C8.41202 5.47895 8.46584 5.49137 8.51552 5.53277C8.9838 6.47347 9.45622 7.41049 9.92496 8.35119C8.89272 8.24769 8.1466 8.66215 7.6866 9.59457C6.96946 9.23393 6.24818 8.87743 5.53104 8.51679C5.51862 8.48781 5.50206 8.46297 5.48964 8.43399C5.67594 7.62163 5.842 6.80927 5.9869 5.98863H5.98735ZM3.749 11.5012C4.19244 10.7883 4.6483 10.0836 5.11704 9.38757C5.9294 9.65713 6.7459 9.92209 7.5624 10.1751C7.6038 10.7138 7.77814 11.2115 8.08036 11.6673C8.2501 11.9327 8.43685 12.1894 8.63972 12.4341C7.49155 12.8444 6.33926 13.2382 5.17868 13.6154C4.66486 12.9396 4.18784 12.2349 3.74854 11.5017L3.749 11.5012ZM8.43272 17.5116C7.62036 17.3253 6.808 17.1592 5.98735 17.0143C5.85488 16.2516 5.70952 15.4931 5.5522 14.7346C5.52322 14.6518 5.52322 14.569 5.5522 14.4857C6.67138 13.9222 7.78227 13.3582 8.88903 12.7865C9.32006 13.2423 9.73452 13.7147 10.1324 14.1959C9.60618 15.2944 9.06706 16.3846 8.51598 17.4702C8.487 17.4826 8.46216 17.4992 8.43318 17.5116H8.43272ZM11.5 19.2522C10.7746 18.8129 10.0699 18.3446 9.3863 17.8428C9.7635 16.7567 10.12 15.6624 10.4641 14.5685C10.7585 14.8132 11.0483 15.0699 11.3344 15.3353C11.4462 15.3643 11.5543 15.3643 11.666 15.3353C11.9397 15.103 12.2047 14.8546 12.4536 14.5892C12.4867 14.5602 12.5157 14.5685 12.5364 14.6099C12.9011 15.6794 13.2576 16.7489 13.6141 17.8221C12.9384 18.3359 12.2337 18.8129 11.5004 19.2522H11.5ZM17.4478 14.776C17.2946 15.5221 17.1492 16.2682 17.0126 17.0143C16.2085 17.1551 15.4086 17.3087 14.6087 17.4702C14.5548 17.4702 14.5093 17.4536 14.4638 17.4288C13.921 16.3551 13.3901 15.2774 12.868 14.1959C13.2701 13.7276 13.668 13.2552 14.07 12.7865C15.1975 13.3458 16.3249 13.9139 17.4482 14.4857C17.4772 14.5809 17.4772 14.6807 17.4482 14.776H17.4478ZM17.8829 13.5947C16.7058 13.234 15.5287 12.8486 14.3598 12.4341C14.9445 11.7873 15.3171 11.033 15.479 10.1751C16.2458 9.91795 17.0043 9.65713 17.7587 9.38757C17.8126 9.37929 17.8622 9.39585 17.9036 9.42897C18.3636 10.113 18.8112 10.8053 19.2505 11.5012C18.8112 12.2101 18.3554 12.9065 17.8825 13.5942L17.8829 13.5947Z" fill="#010100"/>
</g>
</g>
<defs>
<clipPath id="clip0_844_3519">
<rect width="23" height="23" fill="white"/>
</clipPath>
</defs>
</svg>
