<svg width="19" height="15" viewBox="0 0 19 15" fill="none" xmlns="http://www.w3.org/2000/svg">
<mask id="mask0_829_977" style="mask-type:luminance" maskUnits="userSpaceOnUse" x="0" y="0" width="19" height="15">
<rect y="0.375" width="19" height="14.25" fill="white"/>
</mask>
<g mask="url(#mask0_829_977)">
<path fill-rule="evenodd" clip-rule="evenodd" d="M0 0.375H19V14.625H0V0.375Z" fill="#F7FCFF"/>
<path fill-rule="evenodd" clip-rule="evenodd" d="M0 9.0835V10.271H19V9.0835H0Z" fill="#E31D1C"/>
<path fill-rule="evenodd" clip-rule="evenodd" d="M0 11.2603V12.4478H19V11.2603H0Z" fill="#E31D1C"/>
<path fill-rule="evenodd" clip-rule="evenodd" d="M0 4.729V5.9165H19V4.729H0Z" fill="#E31D1C"/>
<path fill-rule="evenodd" clip-rule="evenodd" d="M0 13.4375V14.625H19V13.4375H0Z" fill="#E31D1C"/>
<path fill-rule="evenodd" clip-rule="evenodd" d="M0 6.90625V8.09375H19V6.90625H0Z" fill="#E31D1C"/>
<path fill-rule="evenodd" clip-rule="evenodd" d="M0 0.375V1.5625H19V0.375H0Z" fill="#E31D1C"/>
<path fill-rule="evenodd" clip-rule="evenodd" d="M0 2.55225V3.73975H19V2.55225H0Z" fill="#E31D1C"/>
<rect y="0.375" width="11.875" height="7.71875" fill="#2E42A5"/>
<path d="M1.21843 6.29297H1.64519L1.31023 6.63379L1.43913 7.17188L1.02214 6.86914L0.591476 7.17188L0.736984 6.63379L0.354172 6.29297H0.854172L1.02214 5.85449L1.21843 6.29297ZM3.59343 6.29297H4.02019L3.68523 6.63379L3.81413 7.17188L3.39714 6.86914L2.96648 7.17188L3.11198 6.63379L2.72917 6.29297H3.22917L3.39714 5.85449L3.59343 6.29297ZM5.96843 6.29297H6.39519L6.06023 6.63379L6.18913 7.17188L5.77214 6.86914L5.34148 7.17188L5.48698 6.63379L5.10417 6.29297H5.60417L5.77214 5.85449L5.96843 6.29297ZM8.34343 6.29297H8.77019L8.43523 6.63379L8.56413 7.17188L8.14714 6.86914L7.71648 7.17188L7.86198 6.63379L7.47917 6.29297H7.97917L8.14714 5.85449L8.34343 6.29297ZM10.7184 6.29297H11.1452L10.8102 6.63379L10.9391 7.17188L10.5221 6.86914L10.0915 7.17188L10.237 6.63379L9.85417 6.29297H10.3542L10.5221 5.85449L10.7184 6.29297ZM2.40593 5.10547H2.83269L2.49773 5.44629L2.62663 5.98438L2.20964 5.68164L1.77898 5.98438L1.92448 5.44629L1.54167 5.10547H2.04167L2.20964 4.66699L2.40593 5.10547ZM4.78093 5.10547H5.20769L4.87273 5.44629L5.00163 5.98438L4.58464 5.68164L4.15398 5.98438L4.29948 5.44629L3.91667 5.10547H4.41667L4.58464 4.66699L4.78093 5.10547ZM7.15593 5.10547H7.58269L7.24773 5.44629L7.37663 5.98438L6.95964 5.68164L6.52898 5.98438L6.67448 5.44629L6.29167 5.10547H6.79167L6.95964 4.66699L7.15593 5.10547ZM9.53093 5.10547H9.95769L9.62273 5.44629L9.75163 5.98438L9.33464 5.68164L8.90398 5.98438L9.04948 5.44629L8.66667 5.10547H9.16667L9.33464 4.66699L9.53093 5.10547ZM1.21843 3.91797H1.64519L1.31023 4.25879L1.43913 4.79688L1.02214 4.49414L0.591476 4.79688L0.736984 4.25879L0.354172 3.91797H0.854172L1.02214 3.47949L1.21843 3.91797ZM3.59343 3.91797H4.02019L3.68523 4.25879L3.81413 4.79688L3.39714 4.49414L2.96648 4.79688L3.11198 4.25879L2.72917 3.91797H3.22917L3.39714 3.47949L3.59343 3.91797ZM5.96843 3.91797H6.39519L6.06023 4.25879L6.18913 4.79688L5.77214 4.49414L5.34148 4.79688L5.48698 4.25879L5.10417 3.91797H5.60417L5.77214 3.47949L5.96843 3.91797ZM8.34343 3.91797H8.77019L8.43523 4.25879L8.56413 4.79688L8.14714 4.49414L7.71648 4.79688L7.86198 4.25879L7.47917 3.91797H7.97917L8.14714 3.47949L8.34343 3.91797ZM10.7184 3.91797H11.1452L10.8102 4.25879L10.9391 4.79688L10.5221 4.49414L10.0915 4.79688L10.237 4.25879L9.85417 3.91797H10.3542L10.5221 3.47949L10.7184 3.91797ZM2.40593 2.73047H2.83269L2.49773 3.07129L2.62663 3.60938L2.20964 3.30664L1.77898 3.60938L1.92448 3.07129L1.54167 2.73047H2.04167L2.20964 2.29199L2.40593 2.73047ZM4.78093 2.73047H5.20769L4.87273 3.07129L5.00163 3.60938L4.58464 3.30664L4.15398 3.60938L4.29948 3.07129L3.91667 2.73047H4.41667L4.58464 2.29199L4.78093 2.73047ZM7.15593 2.73047H7.58269L7.24773 3.07129L7.37663 3.60938L6.95964 3.30664L6.52898 3.60938L6.67448 3.07129L6.29167 2.73047H6.79167L6.95964 2.29199L7.15593 2.73047ZM9.53093 2.73047H9.95769L9.62273 3.07129L9.75163 3.60938L9.33464 3.30664L8.90398 3.60938L9.04948 3.07129L8.66667 2.73047H9.16667L9.33464 2.29199L9.53093 2.73047ZM1.21843 1.54297H1.64519L1.31023 1.88379L1.43913 2.42188L1.02214 2.11914L0.591476 2.42188L0.736984 1.88379L0.354172 1.54297H0.854172L1.02214 1.10449L1.21843 1.54297ZM3.59343 1.54297H4.02019L3.68523 1.88379L3.81413 2.42188L3.39714 2.11914L2.96648 2.42188L3.11198 1.88379L2.72917 1.54297H3.22917L3.39714 1.10449L3.59343 1.54297ZM5.96843 1.54297H6.39519L6.06023 1.88379L6.18913 2.42188L5.77214 2.11914L5.34148 2.42188L5.48698 1.88379L5.10417 1.54297H5.60417L5.77214 1.10449L5.96843 1.54297ZM8.34343 1.54297H8.77019L8.43523 1.88379L8.56413 2.42188L8.14714 2.11914L7.71648 2.42188L7.86198 1.88379L7.47917 1.54297H7.97917L8.14714 1.10449L8.34343 1.54297ZM10.7184 1.54297H11.1452L10.8102 1.88379L10.9391 2.42188L10.5221 2.11914L10.0915 2.42188L10.237 1.88379L9.85417 1.54297H10.3542L10.5221 1.10449L10.7184 1.54297Z" fill="#F7FCFF"/>
</g>
</svg>
