<svg width="23" height="23" viewBox="0 0 23 23" fill="none" xmlns="http://www.w3.org/2000/svg">
<g clip-path="url(#clip0_1044_2467)">
<path d="M11.5 23C17.8513 23 23 17.8513 23 11.5C23 5.14872 17.8513 0 11.5 0C5.14872 0 0 5.14872 0 11.5C0 17.8513 5.14872 23 11.5 23Z" fill="#3E73C4"/>
<path d="M14.3909 13.0268C14.3909 11.5002 13.4709 10.9769 11.6309 10.7584C10.317 10.5838 10.0547 10.2352 10.0547 9.62424C10.0547 9.0133 10.4931 8.62086 11.3685 8.62086C12.157 8.62086 12.5954 8.88249 12.8139 9.53727C12.8367 9.60059 12.8783 9.65543 12.9332 9.69431C12.988 9.73327 13.0535 9.75447 13.1208 9.75505H13.8216C13.8621 9.75613 13.9023 9.74901 13.94 9.73406C13.9776 9.71911 14.0118 9.69661 14.0405 9.66808C14.0692 9.63954 14.0918 9.6054 14.1069 9.56788C14.1221 9.53029 14.1294 9.49004 14.1285 9.44958V9.40645C14.0429 8.93273 13.8032 8.50054 13.4467 8.17703C13.0902 7.85352 12.6368 7.65687 12.157 7.61748V6.57099C12.157 6.39634 12.0255 6.26552 11.807 6.22168H11.1493C10.9747 6.22168 10.8431 6.35249 10.7993 6.57099V7.57436C9.48469 7.7483 8.65309 8.62086 8.65309 9.71192C8.65309 11.1509 9.52853 11.718 11.3685 11.9365C12.5954 12.1542 12.9893 12.4166 12.9893 13.1145C12.9893 13.8117 12.3762 14.2918 11.5439 14.2918C10.4047 14.2918 10.0108 13.8124 9.87928 13.1576C9.83616 12.9837 9.70391 12.896 9.57238 12.896H8.82775C8.78729 12.895 8.74711 12.9022 8.70959 12.9173C8.672 12.9322 8.63793 12.9547 8.60925 12.9832C8.58064 13.0118 8.55815 13.0458 8.54305 13.0834C8.52796 13.1209 8.52063 13.1611 8.52156 13.2015V13.2446C8.69622 14.3356 9.39772 15.1205 10.8431 15.339V16.3862C10.8431 16.5602 10.9747 16.6917 11.1932 16.7348H11.8508C12.0255 16.7348 12.157 16.604 12.2008 16.3862V15.3383C13.5154 15.1205 14.3909 14.2048 14.3909 13.0268Z" fill="white"/>
<path d="M9.26615 17.6072C5.84924 16.3853 4.09693 12.5903 5.36768 9.23163C6.02461 7.39881 7.46999 6.00372 9.26615 5.34894C9.44152 5.26197 9.52849 5.13116 9.52849 4.91266V4.30172C9.52849 4.12778 9.44152 3.99697 9.26615 3.95312C9.2223 3.95312 9.13462 3.95312 9.09077 3.99625C8.10501 4.3041 7.18982 4.80393 6.39795 5.46693C5.60609 6.12995 4.95322 6.94304 4.47689 7.85939C4.00057 8.77579 3.71022 9.7773 3.62256 10.8063C3.5349 11.8354 3.65166 12.8716 3.96611 13.8553C4.75386 16.2991 6.63771 18.175 9.09077 18.9599C9.26615 19.0469 9.44152 18.9599 9.48465 18.7852C9.52849 18.7421 9.52849 18.6976 9.52849 18.6106V17.9997C9.52849 17.8688 9.39768 17.6949 9.26615 17.6072ZM13.9093 3.99697C13.7339 3.90928 13.5585 3.99697 13.5154 4.17091C13.4716 4.21475 13.4716 4.25859 13.4716 4.34556V4.9565C13.4716 5.13116 13.6024 5.30509 13.7339 5.39278C17.1508 6.61466 18.9031 10.4097 17.6324 13.7684C16.9755 15.6012 15.5301 16.9963 13.7339 17.6511C13.5585 17.738 13.4716 17.8688 13.4716 18.0873V18.6983C13.4716 18.8722 13.5585 19.003 13.7339 19.0469C13.7777 19.0469 13.8654 19.0469 13.9093 19.0038C14.8951 18.6959 15.8103 18.1961 16.6021 17.533C17.394 16.8701 18.0469 16.0569 18.5232 15.1406C18.9995 14.2242 19.2899 13.2227 19.3775 12.1937C19.4652 11.1646 19.3484 10.1284 19.034 9.14466C18.2462 6.65778 16.3185 4.78184 13.9093 3.99697Z" fill="white"/>
</g>
<defs>
<clipPath id="clip0_1044_2467">
<rect width="23" height="23" fill="white"/>
</clipPath>
</defs>
</svg>
