<svg width="23" height="23" viewBox="0 0 23 23" fill="none" xmlns="http://www.w3.org/2000/svg">
<g clip-path="url(#clip0_1044_2419)">
<path d="M11.5 23C17.8513 23 23 17.8513 23 11.5C23 5.14872 17.8513 0 11.5 0C5.14872 0 0 5.14872 0 11.5C0 17.8513 5.14872 23 11.5 23Z" fill="#26A17B"/>
<path fill-rule="evenodd" clip-rule="evenodd" d="M12.8814 12.4943C12.8024 12.5 12.3948 12.523 11.4856 12.523C10.7597 12.523 10.2486 12.5015 10.0689 12.4928V12.495C7.27445 12.3721 5.18867 11.8855 5.18867 11.3033C5.18867 10.7218 7.27445 10.2352 10.0689 10.1102V12.0105C10.2515 12.0235 10.7748 12.0544 11.4978 12.0544C12.3654 12.0544 12.8002 12.0185 12.8814 12.0113V10.1116C15.6702 10.236 17.7509 10.7225 17.7509 11.3033C17.7509 11.8855 15.6702 12.3706 12.8814 12.4943ZM12.8814 9.91395V8.21339H16.7727V5.62012H6.17767V8.21339H10.0689V9.91323C6.90648 10.0584 4.52814 10.6852 4.52814 11.4355C4.52814 12.1859 6.90648 12.812 10.0689 12.9579V18.4074H12.8814V12.9564C16.0389 12.8112 18.4115 12.1852 18.4115 11.4355C18.4115 10.6859 16.0389 10.0599 12.8814 9.91395Z" fill="white"/>
</g>
<defs>
<clipPath id="clip0_1044_2419">
<rect width="23" height="23" fill="white"/>
</clipPath>
</defs>
</svg>
